<svg width="194" height="273" viewBox="0 0 194 273" fill="none" xmlns="http://www.w3.org/2000/svg">
<mask id="path-1-inside-1_290_436" fill="white">
<path d="M141.255 58.9573C141.255 58.9573 147.667 58.1179 165.214 59.6412L166.054 59.714L165.615 59.9776C165.4 59.9856 165.261 60.3287 165.264 61.1098C165.278 64.5312 167.782 70.8377 170.799 75.0536C174.421 80.115 178.537 87.856 179.716 91.8237C180.123 93.1945 181.501 95.4376 182.778 96.8083C186.266 100.555 190.454 112.968 189.657 117.206C189.171 119.795 189.534 121.511 191.109 124.055C193.798 128.4 193.769 128.619 190.353 129.808C185.401 131.532 183.805 138.344 186.721 145.312C188.829 150.352 188.586 154.025 185.924 157.294C184.489 159.058 182.027 165.894 179.345 175.565C176.988 184.063 173.56 194.381 171.726 198.494C167.679 207.572 166.864 210.648 167.76 213.466C168.498 215.787 173.703 218.432 177.533 218.432C180.362 218.432 189.454 224.22 188.655 225.512C187.731 229.401 183.356 225.832 181.5 224.5C179.714 223.66 177.786 225.083 176.69 225.37C174.22 225.418 169.203 225.414 168.891 225.008C165.824 224.318 164.5 225.978 163.309 228.478L163.223 230.373C164.204 234.544 162.625 235.271 152.873 235.139C147.87 235.073 142.708 234.531 141.402 233.937C137.316 232.078 126.981 234.308 120.502 238.446C117.42 240.416 114.429 242.027 113.858 242.027C113.286 242.027 110.047 244.752 106.661 248.08C101.23 253.422 100.408 254.742 99.6874 259.293C98.79 264.966 95.5596 268.354 90.8617 268.551C89.4791 268.609 87.4486 269.011 86.3505 269.445L82.8566 271.93C82.3418 274.634 61.5275 271 61.5275 268.056C61.4165 267.003 60.631 263.309 60.3036 262.301L59.5 259.478C59 258.478 56.7028 251.544 56.6519 244.248C56.597 236.35 58.917 235.5 58.917 231.559C58.917 227.619 59.0298 220.943 57.8229 214.759C56.9364 210.219 59 203.478 59.5429 202.15L60.8616 198.278C61.3418 196.604 62.4109 194.272 63.2365 193.095C65.0504 190.508 64.3656 188.194 61.786 188.194C60.5542 188.194 59.8963 187.491 59.8963 186.175C59.8963 184.771 59.0597 183.988 57.1511 183.603C55.6417 183.299 53.3496 182.191 52.0589 181.143C50.906 179.658 49.5392 177.762 49 177C48.4348 176.089 48.1696 175.689 47.0885 173.573C45.7438 170.939 43.909 169.207 41.2785 168.087L35.9378 164.326C35 164 35 163.965 33 164.5C31.4357 164.919 32 164.5 30.8326 165.898C31.189 167.519 29.7375 168.044 28.5426 165.898C26.5201 162.264 26.541 160.858 28.6424 159.155C30.0969 157.978 31 155.5 31 155.5C31.6708 154.244 32.5377 153.55 33.1476 153.927L38.7749 154.484C41.5461 154.221 42.9357 154.65 44.3482 156.209C46.6003 158.695 47.917 158.87 47.917 156.684C47.917 155.659 48.4641 155.291 49.4374 155.665C50.6783 156.14 50.7631 155.884 49.9016 154.275C49.3206 153.192 48.2355 152.305 47.4898 152.305C46.7441 152.305 45.8576 151.585 45.5202 150.705C45.1768 149.813 44.2624 149.354 43.4508 149.665C41.3215 150.48 40.8243 143.603 42.4265 140.727L45.5412 138.292C47.2542 136.952 48.4631 135.518 48.2275 135.108C47.9919 134.697 48.526 134.36 49.4144 134.36C50.3029 134.36 50.7811 134.762 50.4776 135.252C49.693 136.52 52.8116 137.516 55.1964 136.76C56.7358 136.272 56.609 137.672 56.609 137.672C56.0428 138.177 54.7693 139.318 54.2052 139.843C54.4837 141.958 56.5471 142.292 60.7698 140.906C60.7698 140.906 64 143 65 143C66 143 69.7612 144.329 69.7612 144.329C73.5 145.5 73.5 142 68.1221 139.747C66.5 139 67.6621 139.747 65.7582 138.64L54.4447 134.282C51.0955 132.024 49.1609 131.342 47.377 131.789C46.0273 132.127 44.9222 132.845 44.9222 133.382C44.9222 133.92 44.2484 134.36 43.4248 134.36C42.5763 134.36 41.9274 133.467 41.9274 132.298C41.9274 130.241 41.9214 130.241 38.8537 132.422C36.5048 134.093 35.2679 134.389 33.6128 133.68C31.5494 132.797 22.2066 132.786 21.3261 133.666C21.0955 133.895 21.4419 135.38 22.0938 136.963C22.7466 138.547 23.1869 140.411 23.0731 141.105C22.9593 141.799 23.3925 142.248 24.0364 142.102C24.6793 141.957 25.412 142.398 25.6636 143.083C25.9151 143.769 25.6137 144.329 24.9917 144.329C23.7239 144.329 19.047 139.343 18.9991 137.938C18.9811 137.439 17.5277 135.747 15.7687 134.179C13.0324 131.739 12.5353 130.572 12.3346 126.114C12.2049 123.247 11.8575 118.434 11.563 115.419C11.1647 111.351 12 112.5 12.3466 109.669C12.8572 105.5 12.2129 103.606 14.3202 99.5826C15.7457 96.86 18.1086 94.7227 17.8122 93.5892C17.8122 91.4232 18.7975 91.6747 18.7975 89.445C19.0271 78.9784 19.4164 75.0804 20.2989 74.4344C20.7561 74.0995 20.3967 73.5442 19.4982 73.2002C18.5439 72.8344 18.1186 72.9839 18.475 73.5591C18.8104 74.1015 18.6617 74.5451 18.1446 74.5451C16.6681 74.5451 16.0083 70.5943 17.0335 67.9016C17.6275 66.3395 17.6145 65.6735 16.9966 66.0553C16.5 65.5 15.7747 65.3994 15.4612 63.8691C14.7065 60.1805 10.9301 52.6129 9.84396 52.6129C9.37078 52.6129 8.98445 52.1374 8.98445 51.5572C8.98445 50.977 9.54547 50.8384 10.2323 51.2502C11.0798 51.7586 11.0409 51.4585 10.1105 50.3121C8.62706 48.4857 7.48105 47.9992 8.48531 49.6222C9.44665 51.1754 7.83843 50.7946 5.85087 48.9981C4.44031 47.7241 4.28358 46.9544 5.11814 45.3973C5.70213 44.3086 5.96767 42.3118 5.70912 40.961C5.16506 38.1158 6.55765 39.1705 7.27441 42.1453C7.7396 44.0773 7.75857 44.0744 7.87037 42.0696C7.93426 40.9321 6.76429 38.9133 5.27087 37.5834C3.77746 36.2545 3.15953 35.9525 3.89625 36.9115C4.63298 37.8705 4.84361 38.6422 4.36444 38.6242C3.0058 38.5754 0 36.0532 0 34.9625C0 33.4442 8.30263 26.718 9.36778 27.375C9.98072 27.7239 10.5 26.5 11.0908 26.6931C11.3563 26.6931 13.3499 24.8079 15.5201 22.5031C17.6904 20.1992 17.5 20 17.4698 19.7237C17.5 19 18.1735 18.1735 18.1735 18.1735C20 15.5 24.836 13.3045 41.4283 6.70196C47.6505 4.22662 51.0197 3.50086 56.6789 3.41712C61.0303 3.35332 63.2325 3.0034 62.1694 2.54382C61.1761 2.11415 62.372 1.99352 64.8877 2.26867C67.8465 2.59267 68.7001 2.47204 67.3873 1.91676C65.7831 1.23786 66.3192 0.934798 70.1376 0.362569C74.5959 -0.304368 75.2832 -0.379147 79.4899 3.0632C81.9517 5.07797 83.1313 7.22532 83.5 7.47755L84.305 7.75171C85.7266 7.75171 92.8512 13.9047 92.3561 14.7042C92.0846 15.1428 92.6446 16.1128 93.599 16.8605L96.467 18.3918C97 18.4775 99.4428 19.7426 101.708 22.197C104.668 25.4031 105.817 27.5076 105.817 29.7207L106 32.5L107.781 34.5837L111.47 40.3379C111.825 41.3318 113.957 45.0354 116.205 48.5665C118.453 52.0985 120.699 56.5189 120.516 57.0991L122.273 59.8525C123.24 61.3669 125.211 62.8662 126.654 63.1852C128.096 63.5032 130.062 63.9768 131.023 64.237C131.984 64.4972 132.77 64.231 132.77 63.6458C132.77 63.0606 134.145 62.5821 135.824 62.5821C137.503 62.5821 138.643 62.2023 138.355 61.7377L141.255 58.9573Z"/>
</mask>
<path d="M141.255 58.9573C141.255 58.9573 147.667 58.1179 165.214 59.6412L166.054 59.714L165.615 59.9776C165.4 59.9856 165.261 60.3287 165.264 61.1098C165.278 64.5312 167.782 70.8377 170.799 75.0536C174.421 80.115 178.537 87.856 179.716 91.8237C180.123 93.1945 181.501 95.4376 182.778 96.8083C186.266 100.555 190.454 112.968 189.657 117.206C189.171 119.795 189.534 121.511 191.109 124.055C193.798 128.4 193.769 128.619 190.353 129.808C185.401 131.532 183.805 138.344 186.721 145.312C188.829 150.352 188.586 154.025 185.924 157.294C184.489 159.058 182.027 165.894 179.345 175.565C176.988 184.063 173.56 194.381 171.726 198.494C167.679 207.572 166.864 210.648 167.76 213.466C168.498 215.787 173.703 218.432 177.533 218.432C180.362 218.432 189.454 224.22 188.655 225.512C187.731 229.401 183.356 225.832 181.5 224.5C179.714 223.66 177.786 225.083 176.69 225.37C174.22 225.418 169.203 225.414 168.891 225.008C165.824 224.318 164.5 225.978 163.309 228.478L163.223 230.373C164.204 234.544 162.625 235.271 152.873 235.139C147.87 235.073 142.708 234.531 141.402 233.937C137.316 232.078 126.981 234.308 120.502 238.446C117.42 240.416 114.429 242.027 113.858 242.027C113.286 242.027 110.047 244.752 106.661 248.08C101.23 253.422 100.408 254.742 99.6874 259.293C98.79 264.966 95.5596 268.354 90.8617 268.551C89.4791 268.609 87.4486 269.011 86.3505 269.445L82.8566 271.93C82.3418 274.634 61.5275 271 61.5275 268.056C61.4165 267.003 60.631 263.309 60.3036 262.301L59.5 259.478C59 258.478 56.7028 251.544 56.6519 244.248C56.597 236.35 58.917 235.5 58.917 231.559C58.917 227.619 59.0298 220.943 57.8229 214.759C56.9364 210.219 59 203.478 59.5429 202.15L60.8616 198.278C61.3418 196.604 62.4109 194.272 63.2365 193.095C65.0504 190.508 64.3656 188.194 61.786 188.194C60.5542 188.194 59.8963 187.491 59.8963 186.175C59.8963 184.771 59.0597 183.988 57.1511 183.603C55.6417 183.299 53.3496 182.191 52.0589 181.143C50.906 179.658 49.5392 177.762 49 177C48.4348 176.089 48.1696 175.689 47.0885 173.573C45.7438 170.939 43.909 169.207 41.2785 168.087L35.9378 164.326C35 164 35 163.965 33 164.5C31.4357 164.919 32 164.5 30.8326 165.898C31.189 167.519 29.7375 168.044 28.5426 165.898C26.5201 162.264 26.541 160.858 28.6424 159.155C30.0969 157.978 31 155.5 31 155.5C31.6708 154.244 32.5377 153.55 33.1476 153.927L38.7749 154.484C41.5461 154.221 42.9357 154.65 44.3482 156.209C46.6003 158.695 47.917 158.87 47.917 156.684C47.917 155.659 48.4641 155.291 49.4374 155.665C50.6783 156.14 50.7631 155.884 49.9016 154.275C49.3206 153.192 48.2355 152.305 47.4898 152.305C46.7441 152.305 45.8576 151.585 45.5202 150.705C45.1768 149.813 44.2624 149.354 43.4508 149.665C41.3215 150.48 40.8243 143.603 42.4265 140.727L45.5412 138.292C47.2542 136.952 48.4631 135.518 48.2275 135.108C47.9919 134.697 48.526 134.36 49.4144 134.36C50.3029 134.36 50.7811 134.762 50.4776 135.252C49.693 136.52 52.8116 137.516 55.1964 136.76C56.7358 136.272 56.609 137.672 56.609 137.672C56.0428 138.177 54.7693 139.318 54.2052 139.843C54.4837 141.958 56.5471 142.292 60.7698 140.906C60.7698 140.906 64 143 65 143C66 143 69.7612 144.329 69.7612 144.329C73.5 145.5 73.5 142 68.1221 139.747C66.5 139 67.6621 139.747 65.7582 138.64L54.4447 134.282C51.0955 132.024 49.1609 131.342 47.377 131.789C46.0273 132.127 44.9222 132.845 44.9222 133.382C44.9222 133.92 44.2484 134.36 43.4248 134.36C42.5763 134.36 41.9274 133.467 41.9274 132.298C41.9274 130.241 41.9214 130.241 38.8537 132.422C36.5048 134.093 35.2679 134.389 33.6128 133.68C31.5494 132.797 22.2066 132.786 21.3261 133.666C21.0955 133.895 21.4419 135.38 22.0938 136.963C22.7466 138.547 23.1869 140.411 23.0731 141.105C22.9593 141.799 23.3925 142.248 24.0364 142.102C24.6793 141.957 25.412 142.398 25.6636 143.083C25.9151 143.769 25.6137 144.329 24.9917 144.329C23.7239 144.329 19.047 139.343 18.9991 137.938C18.9811 137.439 17.5277 135.747 15.7687 134.179C13.0324 131.739 12.5353 130.572 12.3346 126.114C12.2049 123.247 11.8575 118.434 11.563 115.419C11.1647 111.351 12 112.5 12.3466 109.669C12.8572 105.5 12.2129 103.606 14.3202 99.5826C15.7457 96.86 18.1086 94.7227 17.8122 93.5892C17.8122 91.4232 18.7975 91.6747 18.7975 89.445C19.0271 78.9784 19.4164 75.0804 20.2989 74.4344C20.7561 74.0995 20.3967 73.5442 19.4982 73.2002C18.5439 72.8344 18.1186 72.9839 18.475 73.5591C18.8104 74.1015 18.6617 74.5451 18.1446 74.5451C16.6681 74.5451 16.0083 70.5943 17.0335 67.9016C17.6275 66.3395 17.6145 65.6735 16.9966 66.0553C16.5 65.5 15.7747 65.3994 15.4612 63.8691C14.7065 60.1805 10.9301 52.6129 9.84396 52.6129C9.37078 52.6129 8.98445 52.1374 8.98445 51.5572C8.98445 50.977 9.54547 50.8384 10.2323 51.2502C11.0798 51.7586 11.0409 51.4585 10.1105 50.3121C8.62706 48.4857 7.48105 47.9992 8.48531 49.6222C9.44665 51.1754 7.83843 50.7946 5.85087 48.9981C4.44031 47.7241 4.28358 46.9544 5.11814 45.3973C5.70213 44.3086 5.96767 42.3118 5.70912 40.961C5.16506 38.1158 6.55765 39.1705 7.27441 42.1453C7.7396 44.0773 7.75857 44.0744 7.87037 42.0696C7.93426 40.9321 6.76429 38.9133 5.27087 37.5834C3.77746 36.2545 3.15953 35.9525 3.89625 36.9115C4.63298 37.8705 4.84361 38.6422 4.36444 38.6242C3.0058 38.5754 0 36.0532 0 34.9625C0 33.4442 8.30263 26.718 9.36778 27.375C9.98072 27.7239 10.5 26.5 11.0908 26.6931C11.3563 26.6931 13.3499 24.8079 15.5201 22.5031C17.6904 20.1992 17.5 20 17.4698 19.7237C17.5 19 18.1735 18.1735 18.1735 18.1735C20 15.5 24.836 13.3045 41.4283 6.70196C47.6505 4.22662 51.0197 3.50086 56.6789 3.41712C61.0303 3.35332 63.2325 3.0034 62.1694 2.54382C61.1761 2.11415 62.372 1.99352 64.8877 2.26867C67.8465 2.59267 68.7001 2.47204 67.3873 1.91676C65.7831 1.23786 66.3192 0.934798 70.1376 0.362569C74.5959 -0.304368 75.2832 -0.379147 79.4899 3.0632C81.9517 5.07797 83.1313 7.22532 83.5 7.47755L84.305 7.75171C85.7266 7.75171 92.8512 13.9047 92.3561 14.7042C92.0846 15.1428 92.6446 16.1128 93.599 16.8605L96.467 18.3918C97 18.4775 99.4428 19.7426 101.708 22.197C104.668 25.4031 105.817 27.5076 105.817 29.7207L106 32.5L107.781 34.5837L111.47 40.3379C111.825 41.3318 113.957 45.0354 116.205 48.5665C118.453 52.0985 120.699 56.5189 120.516 57.0991L122.273 59.8525C123.24 61.3669 125.211 62.8662 126.654 63.1852C128.096 63.5032 130.062 63.9768 131.023 64.237C131.984 64.4972 132.77 64.231 132.77 63.6458C132.77 63.0606 134.145 62.5821 135.824 62.5821C137.503 62.5821 138.643 62.2023 138.355 61.7377L141.255 58.9573Z" fill="#03B23C" fill-opacity="0.1" stroke="#059B36" stroke-width="2" mask="url(#path-1-inside-1_290_436)"/>
</svg>
