<svg width="207" height="243" viewBox="0 0 207 243" fill="none" xmlns="http://www.w3.org/2000/svg">
<mask id="path-1-inside-1_290_435" fill="white">
<path fill-rule="evenodd" clip-rule="evenodd" d="M25.4905 103.845C27 103 28.695 100.508 30.0886 101.388C30.6806 101.76 31.1617 103.229 31.1577 104.652C31.1547 106.074 31.9813 108.503 32.9956 110.049C34.0098 111.594 34.7086 114.104 34.5489 115.626C34.3163 117.84 34.8613 118.703 37.2721 119.949C38.9303 120.805 43 121 44.5785 121.374L51.2799 122.501C53.5 123 55.0494 125.186 55.4926 124.913C55.9368 124.639 57.6379 125.106 59.2741 125.951C62.6712 127.705 63.7094 127.884 62.8988 126.575C62.5674 126.037 63.4678 125.982 65.086 126.438C66.5994 126.865 67.7005 127.8 67.5328 128.517C67.2822 129.581 67.5088 129.584 68.7806 128.531C69.6351 127.822 70.3778 127.634 70.4327 128.113C70.4866 128.59 70.5984 130.104 70.6823 131.475C70.8141 133.647 71.2364 133.927 73.9786 133.653C75.7086 133.48 79.3323 136.5 80.5223 136.728C82.9151 136.138 84.5 132 86.8403 133.412C90 135.58 90.1206 136.602 93.8272 135.58C97.6187 134.535 101.984 135.383 105.86 137.92C108 138.5 112.971 143.6 115.545 143.244C117.479 142.977 117.817 143.493 118.274 147.425C118.609 150.306 120.13 153.913 122.523 157.505C126.004 162.734 126.557 163.137 130.984 163.665C133.589 163.977 137.192 166.89 139 166.5C142 167 140.618 169.751 142.962 169.751C144.236 169.751 146.367 168.816 146.712 169.373C147.057 169.931 147.712 170.156 148.168 169.875C148.625 169.593 149.951 171.189 151.116 173.42C152.281 175.651 153 176.5 152.214 176.847C152.214 178.5 152 179 153.022 179.672L155.737 181.35C155.433 182.157 156.075 184.273 157.167 186.056L159.151 189.296L171.893 189.139C172.5 189 173.576 187.707 174.653 187.615L179.645 187.502C182.39 187.439 186.546 187.757 188.879 188.208C193.531 189.107 194.374 188.737 190.875 187.333C188.629 186.432 188.629 186.432 190.792 186.368C193.464 186.29 194.022 187.778 193.007 192.285C192.552 194.303 192.621 196.173 193.17 196.722C193.692 197.243 194.088 198.366 194.05 199.215C194 200.315 193.76 200.201 193.219 198.82C191.674 194.876 192.03 198.27 193.5 203.5C193.519 202.523 194.099 204.402 195.213 207.634C197.522 214.34 196.783 217.884 192.489 220.694C189.756 222.482 190.028 223.678 193.355 224.517C195.398 225.03 195.45 224.96 193.886 223.79C192.934 223.078 192.422 222.228 192.749 221.902C193.679 220.973 198.343 227.018 197.777 228.42C197.464 229.195 197.242 229.031 197.193 227.985C197.15 227.058 196.67 226.025 196.128 225.69C195.501 225.303 195.368 226.729 195.763 229.605C196.163 232.519 195.957 234.642 195.185 235.572C193.639 237.431 196.749 242.196 199.006 242.147L201.749 240.959L203.249 239.196C203.749 237.696 204.784 234.163 203.079 231.001C201.418 227.919 201.435 227.816 204.015 225.24C207.291 221.968 207.32 220.739 204.147 219.534C202.774 219.013 201.655 218.239 201.66 217.815C201.665 217.39 202.113 209.747 202.656 200.833L203.643 184.624L193.559 168.621C188.012 159.818 183.699 152.391 183.974 152.116C184.251 151.841 186.011 151.902 187.887 152.254C190.416 152.728 191.771 153.774 193.137 156.306C195.209 160.149 195.519 160.274 198.178 158.332C199.829 157.126 199.896 156.725 198.685 155.268C196.845 153.055 191.031 150.165 186.677 149.299C183.665 148.7 181.915 148.389 180.705 147.41C179.004 146.033 178.372 143.335 176.81 136.657L176.651 135.98C175.977 133.103 176.178 132.54 178.209 131.616C180.176 130.721 180.397 130.175 179.616 128.125C178.299 124.667 178.438 124.045 180.687 123.332C181.785 122.984 182.684 122.358 182.684 121.94C182.684 120.197 175.984 110.971 170.906 105.72C165.638 100.274 165.341 99.6681 162.605 88.8326C161.045 82.6517 159.871 77.5156 159.996 77.4199C160.121 77.3242 161.233 76.7201 162.469 76.078C164.036 75.2646 164.715 74.0114 164.715 71.9338C164.715 69.6369 165.342 68.6889 167.46 67.7797C168.969 67.1327 170.318 66.5425 170.457 66.4707C170.595 66.398 171.438 62.3385 172.332 57.4506C173.225 52.5627 174.363 48.0497 174.861 47.4217C175.359 46.7936 177.323 45.9881 179.226 45.6312C181.127 45.2753 182.684 44.6114 182.684 44.1568C182.684 43.7012 182.974 41.8778 183.33 40.1043L183.975 36.8803L172.099 37.3688C165.567 37.6369 159.202 38.1893 157.955 38.597C155.978 39.242 155.465 38.8073 153.961 35.2164C152.254 31.14 152.194 31.1032 148.083 31.7053C144.363 32.2506 143.747 32.0373 142.197 29.6756C140.759 27.4834 140.567 25.6121 141.062 18.6098L141.658 10.1819H123.18H104.702L100.99 7.20408C96.7874 3.83051 90.4464 1.72702 80.5925 0.436009C74.8664 -0.313672 73.1993 -0.164123 69.6654 1.41599C66.8662 2.66812 61.232 3.60522 52.529 4.26618C37.534 5.40565 35.5505 5.78449 31.3218 8.31965C28.6584 9.91671 28.0315 9.98346 27.0312 8.78019C26.0399 7.58688 25.2533 7.76735 21.914 9.9506C18.2574 12.3412 17.9719 12.8636 18.0038 17.0885C18.0238 19.5948 18.6817 22.7679 19.4663 24.1387C21.6246 27.909 21.2891 32.5656 18.6287 35.7757C17.344 37.3259 15.8286 40.3884 15.2616 42.5816C12.1779 54.4988 6.65648 71.5909 3.54387 78.8524C1.59524 83.4004 0 88.3919 0 89.9461C0 92.9 1.59324 93.7992 9.70819 95.4202C13.6224 96.2028 18 105.5 23.4049 106.214L25.4905 103.845ZM72.6429 113.617C71.8613 114.397 71.3701 114.397 70.8869 113.617C69.7539 111.785 68.1657 112.417 68.8096 114.443C69.4654 116.507 67.8802 118.201 66.85 116.537C65.8417 114.908 63.346 115.372 63.346 117.19C63.346 118.106 64.0897 119.676 64.9982 120.679C65.1977 121.255 66.6133 121.897 67.2962 122.146C68.563 120.881 75.1156 123.788 75.9622 125.991C77.1351 129.043 79.3183 127.592 79.3323 123.748C79.3503 118.681 80.3236 115.41 81.5824 116.188C82.1914 116.563 81.8989 115.661 81.8989 115.661C81.8989 115.661 80.8098 114.721 80.3606 114.998C79.9124 115.276 78.9899 114.834 78.3111 114.018C76.8616 112.273 74.1783 112.084 72.6429 113.617Z"/>
</mask>
<path fill-rule="evenodd" clip-rule="evenodd" d="M25.4905 103.845C27 103 28.695 100.508 30.0886 101.388C30.6806 101.76 31.1617 103.229 31.1577 104.652C31.1547 106.074 31.9813 108.503 32.9956 110.049C34.0098 111.594 34.7086 114.104 34.5489 115.626C34.3163 117.84 34.8613 118.703 37.2721 119.949C38.9303 120.805 43 121 44.5785 121.374L51.2799 122.501C53.5 123 55.0494 125.186 55.4926 124.913C55.9368 124.639 57.6379 125.106 59.2741 125.951C62.6712 127.705 63.7094 127.884 62.8988 126.575C62.5674 126.037 63.4678 125.982 65.086 126.438C66.5994 126.865 67.7005 127.8 67.5328 128.517C67.2822 129.581 67.5088 129.584 68.7806 128.531C69.6351 127.822 70.3778 127.634 70.4327 128.113C70.4866 128.59 70.5984 130.104 70.6823 131.475C70.8141 133.647 71.2364 133.927 73.9786 133.653C75.7086 133.48 79.3323 136.5 80.5223 136.728C82.9151 136.138 84.5 132 86.8403 133.412C90 135.58 90.1206 136.602 93.8272 135.58C97.6187 134.535 101.984 135.383 105.86 137.92C108 138.5 112.971 143.6 115.545 143.244C117.479 142.977 117.817 143.493 118.274 147.425C118.609 150.306 120.13 153.913 122.523 157.505C126.004 162.734 126.557 163.137 130.984 163.665C133.589 163.977 137.192 166.89 139 166.5C142 167 140.618 169.751 142.962 169.751C144.236 169.751 146.367 168.816 146.712 169.373C147.057 169.931 147.712 170.156 148.168 169.875C148.625 169.593 149.951 171.189 151.116 173.42C152.281 175.651 153 176.5 152.214 176.847C152.214 178.5 152 179 153.022 179.672L155.737 181.35C155.433 182.157 156.075 184.273 157.167 186.056L159.151 189.296L171.893 189.139C172.5 189 173.576 187.707 174.653 187.615L179.645 187.502C182.39 187.439 186.546 187.757 188.879 188.208C193.531 189.107 194.374 188.737 190.875 187.333C188.629 186.432 188.629 186.432 190.792 186.368C193.464 186.29 194.022 187.778 193.007 192.285C192.552 194.303 192.621 196.173 193.17 196.722C193.692 197.243 194.088 198.366 194.05 199.215C194 200.315 193.76 200.201 193.219 198.82C191.674 194.876 192.03 198.27 193.5 203.5C193.519 202.523 194.099 204.402 195.213 207.634C197.522 214.34 196.783 217.884 192.489 220.694C189.756 222.482 190.028 223.678 193.355 224.517C195.398 225.03 195.45 224.96 193.886 223.79C192.934 223.078 192.422 222.228 192.749 221.902C193.679 220.973 198.343 227.018 197.777 228.42C197.464 229.195 197.242 229.031 197.193 227.985C197.15 227.058 196.67 226.025 196.128 225.69C195.501 225.303 195.368 226.729 195.763 229.605C196.163 232.519 195.957 234.642 195.185 235.572C193.639 237.431 196.749 242.196 199.006 242.147L201.749 240.959L203.249 239.196C203.749 237.696 204.784 234.163 203.079 231.001C201.418 227.919 201.435 227.816 204.015 225.24C207.291 221.968 207.32 220.739 204.147 219.534C202.774 219.013 201.655 218.239 201.66 217.815C201.665 217.39 202.113 209.747 202.656 200.833L203.643 184.624L193.559 168.621C188.012 159.818 183.699 152.391 183.974 152.116C184.251 151.841 186.011 151.902 187.887 152.254C190.416 152.728 191.771 153.774 193.137 156.306C195.209 160.149 195.519 160.274 198.178 158.332C199.829 157.126 199.896 156.725 198.685 155.268C196.845 153.055 191.031 150.165 186.677 149.299C183.665 148.7 181.915 148.389 180.705 147.41C179.004 146.033 178.372 143.335 176.81 136.657L176.651 135.98C175.977 133.103 176.178 132.54 178.209 131.616C180.176 130.721 180.397 130.175 179.616 128.125C178.299 124.667 178.438 124.045 180.687 123.332C181.785 122.984 182.684 122.358 182.684 121.94C182.684 120.197 175.984 110.971 170.906 105.72C165.638 100.274 165.341 99.6681 162.605 88.8326C161.045 82.6517 159.871 77.5156 159.996 77.4199C160.121 77.3242 161.233 76.7201 162.469 76.078C164.036 75.2646 164.715 74.0114 164.715 71.9338C164.715 69.6369 165.342 68.6889 167.46 67.7797C168.969 67.1327 170.318 66.5425 170.457 66.4707C170.595 66.398 171.438 62.3385 172.332 57.4506C173.225 52.5627 174.363 48.0497 174.861 47.4217C175.359 46.7936 177.323 45.9881 179.226 45.6312C181.127 45.2753 182.684 44.6114 182.684 44.1568C182.684 43.7012 182.974 41.8778 183.33 40.1043L183.975 36.8803L172.099 37.3688C165.567 37.6369 159.202 38.1893 157.955 38.597C155.978 39.242 155.465 38.8073 153.961 35.2164C152.254 31.14 152.194 31.1032 148.083 31.7053C144.363 32.2506 143.747 32.0373 142.197 29.6756C140.759 27.4834 140.567 25.6121 141.062 18.6098L141.658 10.1819H123.18H104.702L100.99 7.20408C96.7874 3.83051 90.4464 1.72702 80.5925 0.436009C74.8664 -0.313672 73.1993 -0.164123 69.6654 1.41599C66.8662 2.66812 61.232 3.60522 52.529 4.26618C37.534 5.40565 35.5505 5.78449 31.3218 8.31965C28.6584 9.91671 28.0315 9.98346 27.0312 8.78019C26.0399 7.58688 25.2533 7.76735 21.914 9.9506C18.2574 12.3412 17.9719 12.8636 18.0038 17.0885C18.0238 19.5948 18.6817 22.7679 19.4663 24.1387C21.6246 27.909 21.2891 32.5656 18.6287 35.7757C17.344 37.3259 15.8286 40.3884 15.2616 42.5816C12.1779 54.4988 6.65648 71.5909 3.54387 78.8524C1.59524 83.4004 0 88.3919 0 89.9461C0 92.9 1.59324 93.7992 9.70819 95.4202C13.6224 96.2028 18 105.5 23.4049 106.214L25.4905 103.845ZM72.6429 113.617C71.8613 114.397 71.3701 114.397 70.8869 113.617C69.7539 111.785 68.1657 112.417 68.8096 114.443C69.4654 116.507 67.8802 118.201 66.85 116.537C65.8417 114.908 63.346 115.372 63.346 117.19C63.346 118.106 64.0897 119.676 64.9982 120.679C65.1977 121.255 66.6133 121.897 67.2962 122.146C68.563 120.881 75.1156 123.788 75.9622 125.991C77.1351 129.043 79.3183 127.592 79.3323 123.748C79.3503 118.681 80.3236 115.41 81.5824 116.188C82.1914 116.563 81.8989 115.661 81.8989 115.661C81.8989 115.661 80.8098 114.721 80.3606 114.998C79.9124 115.276 78.9899 114.834 78.3111 114.018C76.8616 112.273 74.1783 112.084 72.6429 113.617Z" fill="#03B23C" fill-opacity="0.1" stroke="#059B36" stroke-width="4" mask="url(#path-1-inside-1_290_435)"/>
</svg>
