<svg width="180" height="230" viewBox="0 0 180 230" fill="none" xmlns="http://www.w3.org/2000/svg">
<path d="M62.331 213.272L62.3309 213.272C62.2112 213.196 62.0989 213.112 62.0066 213.02C61.9187 212.931 61.8168 212.802 61.7727 212.631C61.7219 212.434 61.7624 212.236 61.8783 212.075C61.9789 211.936 62.1162 211.853 62.2275 211.8C62.4504 211.696 62.7486 211.637 63.0762 211.6C63.4155 211.562 63.8326 211.543 64.3206 211.543C65.1871 211.543 66.1425 211.666 66.989 211.863C67.821 212.057 68.6079 212.336 69.0995 212.68M62.331 213.272L75.2457 220.077L75.6707 220.34C75.7849 220.156 75.7938 219.959 75.7707 219.803C75.7478 219.65 75.6896 219.503 75.6224 219.373C75.4879 219.113 75.2712 218.829 75.0107 218.543C74.4846 217.966 73.7061 217.299 72.8026 216.672C71.7278 215.925 71.1286 215.178 70.6501 214.505C70.5747 214.399 70.5003 214.291 70.4256 214.183C70.0448 213.631 69.6578 213.07 69.0995 212.68M62.331 213.272C62.3826 213.305 62.4168 213.331 62.4392 213.351C62.416 213.377 62.3773 213.413 62.314 213.46C61.9522 213.726 61.1995 214.018 60.1709 214.259C58.1404 214.735 55.336 214.948 53.2633 214.567C51.0578 214.161 48.8076 213.398 47.2937 212.65C45.8975 211.96 44.3791 211.172 43.3536 210.146C43.2458 210.039 43.1333 209.928 43.02 209.817C42.856 209.656 42.6902 209.493 42.5342 209.334C42.4054 209.203 42.2941 209.085 42.2097 208.987C42.1379 208.904 42.1047 208.858 42.0934 208.841C42.0917 208.834 42.0894 208.824 42.0866 208.81C42.0785 208.768 42.0702 208.71 42.0629 208.637C42.0483 208.492 42.04 208.31 42.0396 208.125C42.0385 207.638 42.1695 207.158 42.3209 206.605C42.3341 206.556 42.3475 206.507 42.361 206.457L43.3113 202.957C43.4606 202.407 43.6637 201.868 43.906 201.343C44.5285 199.996 44.8701 199.08 44.7736 198.125C44.6793 197.192 44.169 196.287 43.3763 194.948C42.9177 194.172 42.5893 193.611 42.3767 193.169C42.1613 192.721 42.1004 192.464 42.108 192.288C42.1145 192.14 42.1721 191.986 42.3836 191.751C42.6078 191.501 42.9523 191.216 43.4681 190.799C44.1049 190.284 44.6965 189.478 45.1504 188.614C45.6059 187.747 45.9477 186.774 46.051 185.899L45.5545 185.84L46.051 185.899C46.1231 185.287 46.1594 184.766 46.1346 184.327C46.1097 183.887 46.022 183.491 45.8154 183.157C45.3894 182.468 44.5906 182.245 43.624 182.108C42.5471 181.956 41.7603 181.013 41.8027 179.926L42.3964 164.678L42.9614 150.186C43.0446 148.052 42.4749 145.943 41.3283 144.141L33.8882 132.447C31.383 128.509 29.1516 124.887 27.5748 122.223C26.7859 120.89 26.1635 119.802 25.7531 119.036C25.5697 118.694 25.4325 118.423 25.3423 118.227C25.399 118.22 25.4651 118.22 25.5429 118.231C25.7865 118.263 26.1098 118.392 26.4968 118.644C27.2667 119.145 28.1652 120.051 28.9909 121.23C29.8187 122.411 30.9187 123.472 32.3345 124.009C33.0222 124.27 33.7516 124.404 34.4872 124.404H35.3444C36.1269 124.404 36.8898 124.159 37.5266 123.704C39.3805 122.38 39.6368 119.723 38.0701 118.068L37.9593 117.951C34.4327 114.227 30.3551 112.108 24.0464 110.665L24.0463 110.665C21.1544 110.003 18.8627 107.801 18.0867 104.938L17.756 103.718L17.2734 103.849L17.7559 103.718C17.3478 102.213 17.046 101.086 16.8507 100.221C16.6536 99.3472 16.5762 98.7849 16.5932 98.3936C16.6089 98.033 16.7026 97.8481 16.8523 97.6931C17.0352 97.5037 17.3239 97.3335 17.8225 97.0671C18.6501 96.6248 19.2459 96.1243 19.5078 95.3396C19.7569 94.5931 19.6683 93.6821 19.4119 92.5152L19.4119 92.5151C19.1617 91.3778 19.1423 90.6565 19.3392 90.0687C19.5347 89.4852 19.9711 88.9515 20.8312 88.256C22.3107 87.06 22.6868 84.9586 21.7139 83.3238L19.3842 79.4089L18.9545 79.6646L19.3841 79.4089C17.2695 75.8564 13.1907 70.7015 10.2981 67.9279L9.95209 68.2888L10.2981 67.9278C7.8241 65.556 6.55005 64.2339 5.55886 62.3088C4.55569 60.3604 3.83365 57.7789 2.55362 52.8543L2.55361 52.8543C1.26408 47.8951 0.629767 45.3558 0.517678 43.8876C0.462751 43.1681 0.541297 42.7795 0.678704 42.5111C0.819395 42.2363 1.054 42.0193 1.47996 41.697L1.48005 41.6969C1.95467 41.3376 2.46641 41.0079 2.90428 40.7684C3.12347 40.6485 3.31746 40.5548 3.47435 40.4916C3.55269 40.46 3.61681 40.4381 3.66668 40.4242C3.71485 40.4108 3.73752 40.4084 3.74017 40.4081C3.74044 40.4081 3.7405 40.4081 3.74038 40.4081L3.74159 40.4081C3.95574 40.3987 4.1163 40.2914 4.21957 40.1907C4.3218 40.0909 4.39812 39.9697 4.45647 39.855C4.57374 39.6243 4.66547 39.3248 4.73728 38.9964C4.88253 38.3319 4.96856 37.4432 4.96856 36.4851C4.96856 35.0421 5.09245 34.3002 5.42913 33.8016C5.75969 33.312 6.35973 32.9641 7.62763 32.5231L7.62772 32.5231C8.47821 32.2271 9.26152 31.8621 9.8421 31.5058C10.1306 31.3287 10.3852 31.144 10.5747 30.9601C10.6694 30.8682 10.7595 30.7654 10.8288 30.6529C10.896 30.5439 10.9641 30.3931 10.9661 30.2142L10.9661 30.2133C10.9685 29.9632 11.083 29.0228 11.2754 27.6542C11.4647 26.3083 11.722 24.5953 11.9967 22.84C12.5475 19.3206 13.1635 15.6606 13.4396 14.4378L13.4396 14.4377M62.331 213.272L13.4396 14.4377M69.0995 212.68L68.8128 213.09L69.0993 212.68C69.0994 212.68 69.0994 212.68 69.0995 212.68ZM95.1193 224.136L94.8716 223.701C100.75 220.349 101.49 219.863 103.292 218.234L103.628 218.605L103.292 218.234C103.861 217.72 104.773 217.162 105.762 216.671C106.759 216.177 107.873 215.732 108.869 215.457C110.249 215.076 111.046 214.708 111.566 214.197C112.075 213.696 112.379 212.998 112.618 211.803C112.779 210.996 112.866 209.999 112.872 209.045C112.877 208.084 112.801 207.206 112.655 206.626L112.655 206.626C112.407 205.64 112.375 204.81 112.87 204.047C113.331 203.335 114.204 202.767 115.467 202.115C116.774 201.44 117.099 199.717 116.128 198.613L115.412 197.798C114.509 196.771 113.812 195.957 113.324 195.293C112.846 194.642 112.519 194.068 112.436 193.526C112.344 192.923 112.561 192.437 112.96 192.013C113.334 191.617 113.898 191.24 114.573 190.819C115.155 190.456 115.675 190.198 116.037 190.121C116.131 190.101 116.25 190.085 116.373 190.102C116.498 190.119 116.694 190.18 116.819 190.379C116.939 190.569 116.917 190.766 116.888 190.878C116.877 190.922 116.862 190.965 116.845 191.006C117.046 191.081 117.389 191.15 117.879 191.195C118.968 191.296 120.56 191.264 122.266 191.123C123.968 190.983 125.756 190.738 127.233 190.422C127.971 190.264 128.623 190.09 129.142 189.907C129.676 189.718 130.017 189.537 130.182 189.388C130.699 188.922 131.509 188.443 132.376 188.039C133.25 187.632 134.223 187.281 135.089 187.089L135.09 187.089C136.717 186.728 140.228 185.749 142.887 184.914C146.103 183.904 147.958 183.648 149.712 184.207C150.036 184.31 150.354 184.262 150.569 184.094C150.799 183.914 150.905 183.618 150.843 183.333L150.517 181.831C150.43 181.43 150.394 181 150.455 180.564C150.593 179.59 150.868 178.687 151.223 178.046C151.461 177.616 151.819 177.324 152.171 177.102C152.403 176.956 152.67 176.82 152.909 176.698C153.013 176.645 153.112 176.594 153.2 176.547C153.479 176.398 153.758 176.23 154.048 176.053L154.151 175.99C154.406 175.835 154.67 175.673 154.937 175.522C155.545 175.179 156.211 174.863 156.948 174.735C157.352 174.666 157.784 174.626 158.217 174.626C158.845 174.626 159.394 174.533 159.769 174.398C159.959 174.33 160.077 174.261 160.138 174.209C160.146 174.203 160.151 174.197 160.156 174.193L95.1193 224.136ZM95.1193 224.136L94.8716 223.701M95.1193 224.136L94.8716 223.701M63.2957 35.4005L62.9368 35.7486C55.4854 28.0661 44.7378 16.9581 39.0542 11.0639C36.219 8.12423 33.4478 5.45442 31.2689 3.52238C30.1784 2.55547 29.2429 1.7792 28.5254 1.24739C28.1657 0.980789 27.8701 0.782602 27.6429 0.653369C27.5291 0.588675 27.4414 0.54634 27.3774 0.521384C27.3404 0.506949 27.3199 0.501713 27.313 0.500029C24.9499 0.509759 22.9374 2.97322 22.9374 6.53677C22.9374 7.33316 22.922 7.99437 22.8214 8.53797C22.7176 9.09863 22.5177 9.56787 22.1298 9.95856C21.7548 10.3363 21.2427 10.6006 20.596 10.8349C19.9478 11.0698 19.1127 11.292 18.0562 11.5576L63.2957 35.4005ZM63.2957 35.4005L62.9368 35.7486C76.4784 49.7093 82.1492 56.1551 89.3097 65.7222C90.765 67.6665 92.0033 69.0572 93.2898 70.0803C94.5849 71.1102 95.9116 71.7541 97.5256 72.2306L97.6672 71.751L63.2957 35.4005ZM13.4396 14.4377C13.5812 13.8096 13.9223 13.306 14.6208 12.8496M13.4396 14.4377L14.6208 12.8496M94.8716 223.701C93.4947 224.487 92.823 224.795 92.0957 224.788M94.8716 223.701L92.0957 224.788M92.0957 224.788C91.3413 224.78 90.4662 224.435 88.6924 223.616L92.0957 224.788ZM14.6208 12.8496C15.3428 12.3779 16.4356 11.9653 18.0562 11.5577L14.6208 12.8496ZM76.6128 221.677C76.4721 221.434 76.2879 221.196 76.0477 221.047L81.9255 225.557C81.9256 225.557 81.9256 225.557 81.9257 225.557C81.9424 225.601 81.9587 225.707 81.919 225.897C81.8804 226.081 81.7967 226.307 81.6641 226.56C81.3991 227.066 80.9665 227.629 80.431 228.113L80.4308 228.113C79.9863 228.515 79.6427 228.805 79.3646 229C79.0795 229.2 78.9107 229.266 78.8126 229.28C78.7514 229.289 78.7028 229.283 78.6159 229.213C78.5046 229.124 78.3659 228.955 78.1738 228.652C77.9663 228.325 77.7493 227.726 77.5835 226.993C77.4204 226.273 77.3182 225.475 77.314 224.779C77.3097 223.994 77.185 223.203 76.9831 222.554C76.8822 222.23 76.7583 221.929 76.6128 221.677ZM62.4786 213.395C62.4784 213.396 62.4771 213.394 62.4755 213.39C62.4779 213.393 62.4787 213.395 62.4786 213.395Z" fill="#03B23C" fill-opacity="0.1" stroke="#059B36"/>
</svg>
