<svg width="187" height="184" viewBox="0 0 187 184" fill="none" xmlns="http://www.w3.org/2000/svg">
<mask id="path-1-inside-1_290_433" fill="white">
<path d="M90.9273 2.42948C90.9203 3.76535 90.6319 5.90972 90.2875 7.19474C89.7334 9.26434 89.2513 9.45774 86.0588 8.89448C78.6776 7.59052 76.3975 7.64435 73.7211 9.18858C72.2118 10.0589 70.9759 11.0688 70.9759 11.4316C70.9759 12.7944 75.6069 15.6027 76.7569 14.8939C77.8769 14.539 79.0799 14.7105 79.4293 15.2747C79.8166 15.9008 79.4143 16.0513 78.399 15.6625C76.9635 15.1123 76.8936 15.3236 77.8939 17.1898C78.5318 18.3811 78.8113 19.7479 78.5148 20.2274C78.2184 20.7069 78.6466 21.3559 79.4672 21.671C80.2878 21.985 80.9586 21.7078 80.9586 21.0549C80.9586 19.6632 84.0612 23.8512 84.3278 25.6018C84.4276 26.2558 84.8559 27.3464 85.2811 28.0263C85.8162 28.8807 85.5597 29.0711 84.4466 28.6454C84.4466 28.6454 77.2261 21.0439 74.0186 21.5134L64 22.5C62.5 22.5 61.4614 22.6918 61.7628 26.2109C62.26 32.018 62.1492 32.5483 60.5619 31.9392C59.336 31.4697 58.6632 31.8355 58.3168 33.1604C57.8895 34.7904 53.1897 36.8171 50.7908 36.4054C50.3955 36.3376 49.571 37.2159 48.959 38.3583C47.6692 40.7649 48.4489 44.8114 50.6181 46.9787C51.4457 47.8051 51.9139 49.0273 51.6583 49.6933C51.3469 50.5038 52.0696 50.7869 53.8466 50.5476C56.1576 50.2376 57 52.5 59.2871 53.2313C60.6348 54.4496 60.8165 55.6309 60.2065 59.2128C59.5407 63.1187 59.0326 63.8116 56.1426 64.7517C54.3247 65.3429 52.403 66.4644 51.871 67.244C50.8188 66.91 45.8983 66.5551 45.5449 67.1254C45.1915 67.6966 43.8329 68.1631 42.5251 68.1631C41.2174 68.1631 39.8697 68.6127 39.5293 69.161C38.3723 71.0313 34.1047 66.8642 34.0708 63.8305C34.0319 60.2975 30.3233 54.8842 28.4365 55.607C27.4473 55.9858 27.0519 55.292 27.0519 53.1785C27.0519 49.6703 24.697 49.1549 23.0149 52.2942C21.25 55.589 23.4252 77.4624 25.8031 80.3235C27.56 82.438 26.2144 86.1106 23.6908 86.0887C22.547 86.079 12.1771 85.2522 0.439346 84.2364L0 84.5C0.543928 84.4795 1.57228 86.6124 1.98965 89.2191C2.32707 91.3216 4.34557 95.4817 6.47688 98.4635C10.8743 104.616 14.0288 110.591 14.9901 114.584C15.3505 116.081 16.9038 118.773 18.4432 120.565C22.3304 125.092 26.8256 137.887 25.9911 142.052C24.7902 148.049 31.7631 155.65 35.261 152.156C37.01 150.41 44.2445 149.153 57.5435 148.283C66.3123 147.71 71.0581 146.933 73.5088 145.669C77.5878 143.567 79.162 143.619 92.1495 146.288C99.7644 147.853 102.527 148.889 104.743 151.011L107.583 153.731L127.236 154.229L146.889 154.727L146.568 164.198C146.178 175.732 147.104 177.683 152.271 176.196C156.375 175.016 157.171 175.439 158.983 179.772C159.823 181.78 161.092 183.134 162.125 183.125C166.359 183.087 166.434 182.567 165.3 161.142C164.707 149.937 164.066 140.273 163.876 139.666C163.687 139.058 161.696 138.267 159.453 137.909L155.374 137.257V118.827V100.396L162.612 100.39C166.593 100.387 173.555 100.095 178.085 99.7435L186.321 99.1035V93.8508C186.321 90.6198 185.84 88.3777 185.073 88.0238C185.073 87.0892 179.724 87.6682 177.05 88.0745C173.889 88.0945 170.526 88.1374 169.576 88.1702C168.626 88.2021 166.155 86.8992 164.086 85.2752C160.1 82.1479 157.214 83.2783 156.262 82.0133C155.5 81 156.262 81.202 154.532 79.4173C154 77 152.989 73.0939 155.428 71.0731C156.197 70.4351 156.827 69.1202 156.827 68.1512C156.827 66.2361 152.834 65 152.867 62.8077L152.834 60.2466C152.834 57.7573 153.718 57.6965 158.279 59.8678C160.211 60.789 162.12 61.2156 162.519 60.8169C163.533 59.805 161.552 56.9159 158.937 55.591C157.735 54.9809 156.161 53.6779 155.441 52.694C154.597 51.5416 153.381 51.1009 152.022 51.4558C150.822 51.7699 149.414 51.407 148.755 50.6144C148.019 49.7282 147.976 49.2217 148.635 49.2217C149.206 49.2217 149.901 49.782 150.181 50.4679C150.46 51.1538 150.688 50.5925 150.685 49.2217C150.683 47.851 150.917 45.2839 151.207 43.5174C151.497 41.7498 151.29 40.0302 150.746 39.6942C150.203 39.3592 150.018 38.2686 150.335 37.2707C150.719 36.0614 149.759 34.2002 147.454 31.688C144.666 28.6484 143.723 28.1479 142.576 29.098C141.59 29.9155 139.771 30.0181 136.635 29.4329C134.15 28.9694 130.916 28.7172 129.45 28.8737C127.882 29.0402 125.312 28.1609 123.218 26.7423C121.258 25.4144 119.3 24.5461 118.868 24.8132C118.435 25.0804 118.275 24.5132 118.512 23.5521C118.749 22.5921 118.011 20.3022 116.872 18.4629C115.308 15.9357 114.301 15.2508 112.748 15.6566C108.936 16.6515 106.87 15.2389 93.6866 2.62588L90.9413 0L90.9273 2.42948Z"/>
</mask>
<path d="M90.9273 2.42948C90.9203 3.76535 90.6319 5.90972 90.2875 7.19474C89.7334 9.26434 89.2513 9.45774 86.0588 8.89448C78.6776 7.59052 76.3975 7.64435 73.7211 9.18858C72.2118 10.0589 70.9759 11.0688 70.9759 11.4316C70.9759 12.7944 75.6069 15.6027 76.7569 14.8939C77.8769 14.539 79.0799 14.7105 79.4293 15.2747C79.8166 15.9008 79.4143 16.0513 78.399 15.6625C76.9635 15.1123 76.8936 15.3236 77.8939 17.1898C78.5318 18.3811 78.8113 19.7479 78.5148 20.2274C78.2184 20.7069 78.6466 21.3559 79.4672 21.671C80.2878 21.985 80.9586 21.7078 80.9586 21.0549C80.9586 19.6632 84.0612 23.8512 84.3278 25.6018C84.4276 26.2558 84.8559 27.3464 85.2811 28.0263C85.8162 28.8807 85.5597 29.0711 84.4466 28.6454C84.4466 28.6454 77.2261 21.0439 74.0186 21.5134L64 22.5C62.5 22.5 61.4614 22.6918 61.7628 26.2109C62.26 32.018 62.1492 32.5483 60.5619 31.9392C59.336 31.4697 58.6632 31.8355 58.3168 33.1604C57.8895 34.7904 53.1897 36.8171 50.7908 36.4054C50.3955 36.3376 49.571 37.2159 48.959 38.3583C47.6692 40.7649 48.4489 44.8114 50.6181 46.9787C51.4457 47.8051 51.9139 49.0273 51.6583 49.6933C51.3469 50.5038 52.0696 50.7869 53.8466 50.5476C56.1576 50.2376 57 52.5 59.2871 53.2313C60.6348 54.4496 60.8165 55.6309 60.2065 59.2128C59.5407 63.1187 59.0326 63.8116 56.1426 64.7517C54.3247 65.3429 52.403 66.4644 51.871 67.244C50.8188 66.91 45.8983 66.5551 45.5449 67.1254C45.1915 67.6966 43.8329 68.1631 42.5251 68.1631C41.2174 68.1631 39.8697 68.6127 39.5293 69.161C38.3723 71.0313 34.1047 66.8642 34.0708 63.8305C34.0319 60.2975 30.3233 54.8842 28.4365 55.607C27.4473 55.9858 27.0519 55.292 27.0519 53.1785C27.0519 49.6703 24.697 49.1549 23.0149 52.2942C21.25 55.589 23.4252 77.4624 25.8031 80.3235C27.56 82.438 26.2144 86.1106 23.6908 86.0887C22.547 86.079 12.1771 85.2522 0.439346 84.2364L0 84.5C0.543928 84.4795 1.57228 86.6124 1.98965 89.2191C2.32707 91.3216 4.34557 95.4817 6.47688 98.4635C10.8743 104.616 14.0288 110.591 14.9901 114.584C15.3505 116.081 16.9038 118.773 18.4432 120.565C22.3304 125.092 26.8256 137.887 25.9911 142.052C24.7902 148.049 31.7631 155.65 35.261 152.156C37.01 150.41 44.2445 149.153 57.5435 148.283C66.3123 147.71 71.0581 146.933 73.5088 145.669C77.5878 143.567 79.162 143.619 92.1495 146.288C99.7644 147.853 102.527 148.889 104.743 151.011L107.583 153.731L127.236 154.229L146.889 154.727L146.568 164.198C146.178 175.732 147.104 177.683 152.271 176.196C156.375 175.016 157.171 175.439 158.983 179.772C159.823 181.78 161.092 183.134 162.125 183.125C166.359 183.087 166.434 182.567 165.3 161.142C164.707 149.937 164.066 140.273 163.876 139.666C163.687 139.058 161.696 138.267 159.453 137.909L155.374 137.257V118.827V100.396L162.612 100.39C166.593 100.387 173.555 100.095 178.085 99.7435L186.321 99.1035V93.8508C186.321 90.6198 185.84 88.3777 185.073 88.0238C185.073 87.0892 179.724 87.6682 177.05 88.0745C173.889 88.0945 170.526 88.1374 169.576 88.1702C168.626 88.2021 166.155 86.8992 164.086 85.2752C160.1 82.1479 157.214 83.2783 156.262 82.0133C155.5 81 156.262 81.202 154.532 79.4173C154 77 152.989 73.0939 155.428 71.0731C156.197 70.4351 156.827 69.1202 156.827 68.1512C156.827 66.2361 152.834 65 152.867 62.8077L152.834 60.2466C152.834 57.7573 153.718 57.6965 158.279 59.8678C160.211 60.789 162.12 61.2156 162.519 60.8169C163.533 59.805 161.552 56.9159 158.937 55.591C157.735 54.9809 156.161 53.6779 155.441 52.694C154.597 51.5416 153.381 51.1009 152.022 51.4558C150.822 51.7699 149.414 51.407 148.755 50.6144C148.019 49.7282 147.976 49.2217 148.635 49.2217C149.206 49.2217 149.901 49.782 150.181 50.4679C150.46 51.1538 150.688 50.5925 150.685 49.2217C150.683 47.851 150.917 45.2839 151.207 43.5174C151.497 41.7498 151.29 40.0302 150.746 39.6942C150.203 39.3592 150.018 38.2686 150.335 37.2707C150.719 36.0614 149.759 34.2002 147.454 31.688C144.666 28.6484 143.723 28.1479 142.576 29.098C141.59 29.9155 139.771 30.0181 136.635 29.4329C134.15 28.9694 130.916 28.7172 129.45 28.8737C127.882 29.0402 125.312 28.1609 123.218 26.7423C121.258 25.4144 119.3 24.5461 118.868 24.8132C118.435 25.0804 118.275 24.5132 118.512 23.5521C118.749 22.5921 118.011 20.3022 116.872 18.4629C115.308 15.9357 114.301 15.2508 112.748 15.6566C108.936 16.6515 106.87 15.2389 93.6866 2.62588L90.9413 0L90.9273 2.42948Z" fill="#03B23C" fill-opacity="0.1" stroke="#059B36" stroke-width="2" mask="url(#path-1-inside-1_290_433)"/>
</svg>
