<svg width="271" height="236" viewBox="0 0 271 236" fill="none" xmlns="http://www.w3.org/2000/svg">
<path d="M222.806 210.822L222.806 210.822C223.01 210.86 223.346 210.785 223.802 210.498C224.24 210.221 224.715 209.794 225.161 209.274C226.065 208.22 226.753 206.901 226.828 205.897L226.828 205.897C226.945 204.356 228.235 203.539 229.718 203.367C231.21 203.194 233.051 203.628 234.683 204.696C235.217 205.045 236.202 205.361 237.404 205.615C238.403 205.827 239.504 205.987 240.523 206.094C240.582 206.064 240.633 206.044 240.66 206.04C240.689 206.038 240.735 206.038 240.752 206.039C240.759 206.04 240.77 206.041 240.778 206.043L240.787 206.044C240.797 206.045 240.806 206.047 240.814 206.049C240.824 206.051 240.83 206.053 240.831 206.053L240.847 206.057L240.867 206.063C240.885 206.068 240.911 206.076 240.942 206.086L240.975 206.097C241.089 206.132 241.275 206.192 241.501 206.265C241.652 206.313 241.82 206.368 241.996 206.425C242.268 206.513 242.559 206.607 242.83 206.695L243.295 206.846L243.757 206.996L243.889 207.039L243.925 207.05L243.934 207.053L243.936 207.054L243.937 207.054L243.937 207.054L243.782 207.53L243.937 207.054L244.09 207.104L244.185 207.234L245.49 209.011C246.204 209.396 247.277 209.891 248.286 210.187C248.815 210.342 249.302 210.434 249.697 210.439C250.105 210.443 250.328 210.354 250.436 210.248L250.582 210.106H250.785C251.206 210.106 251.643 210.254 252.013 210.465C252.383 210.676 252.734 210.978 252.957 211.34C252.954 211.335 252.959 211.344 252.984 211.365C252.993 211.373 253.007 211.384 253.024 211.396C253.08 211.436 253.163 211.483 253.277 211.533C253.504 211.635 253.817 211.733 254.2 211.819C254.963 211.991 255.95 212.1 256.969 212.1C258.428 212.1 259.387 211.961 260.12 211.629C260.836 211.305 261.389 210.772 261.984 209.865C262.505 209.071 263.104 208.45 263.725 208.073C264.345 207.697 265.041 207.537 265.69 207.786L265.691 207.786C266.088 207.938 266.274 207.884 266.339 207.843C266.392 207.809 266.507 207.69 266.507 207.305C266.507 206.225 266.249 205.128 265.872 204.314C265.684 203.906 265.476 203.592 265.275 203.387C265.069 203.176 264.922 203.131 264.845 203.131H264.754L264.668 203.099C264.013 202.851 263.53 202.548 263.213 202.12C262.893 201.688 262.792 201.195 262.767 200.676C262.749 200.293 262.771 199.849 262.795 199.366C262.803 199.214 262.811 199.057 262.818 198.898C262.847 198.215 262.862 197.418 262.785 196.467C262.64 194.663 262.621 192.82 262.708 191.3C262.751 190.54 262.821 189.854 262.917 189.289C263.01 188.741 263.136 188.254 263.316 187.931L263.396 187.788L263.545 187.72C264.214 187.415 265.239 186.888 266.135 186.305C266.583 186.013 266.987 185.715 267.294 185.43C267.614 185.134 267.775 184.902 267.822 184.751L267.857 184.639L267.938 184.555C268.665 183.797 269.324 182.996 269.797 182.32C270.034 181.982 270.219 181.684 270.342 181.444C270.404 181.324 270.446 181.226 270.472 181.151C270.5 181.069 270.5 181.04 270.5 181.048C270.5 180.687 270.327 180.255 269.933 179.776C269.542 179.3 268.965 178.817 268.24 178.368C266.791 177.468 264.82 176.745 262.778 176.481C261.578 176.327 260.157 176.09 258.841 175.757C257.555 175.432 256.313 175.001 255.482 174.431C254.083 173.731 252.012 172.69 250.304 171.821C249.444 171.383 248.675 170.988 248.13 170.703C247.858 170.56 247.638 170.443 247.49 170.36C247.418 170.32 247.354 170.283 247.308 170.254L247.307 170.254C247.297 170.247 247.276 170.234 247.252 170.216L243.684 168.471C242.665 167.973 241.77 167.442 241.149 166.981C240.842 166.753 240.579 166.527 240.403 166.316C240.316 166.213 240.228 166.087 240.176 165.944C240.123 165.8 240.086 165.572 240.22 165.35M222.806 210.822L240.648 165.608M222.806 210.822C222.22 210.714 221.762 211.063 221.495 211.485C221.227 211.908 221.086 212.482 221.086 213.099C221.086 213.488 220.776 214.01 219.923 214.611C219.097 215.193 217.88 215.763 216.356 216.277C213.313 217.303 209.149 218.068 204.716 218.278C202.944 218.361 201.363 218.5 200.242 218.658C199.685 218.736 199.223 218.822 198.904 218.913C198.752 218.956 198.591 219.011 198.464 219.09C198.406 219.126 198.298 219.201 198.226 219.331C198.174 219.427 198.149 219.535 198.157 219.642C198.142 219.662 198.124 219.686 198.1 219.713C197.967 219.87 197.737 220.086 197.414 220.351C196.776 220.874 195.838 221.533 194.757 222.196C193.779 222.795 193.013 223.267 192.441 223.705C191.862 224.148 191.439 224.587 191.179 225.141C190.92 225.694 190.852 226.304 190.877 227.04C190.902 227.764 191.021 228.662 191.176 229.805C191.311 232.289 190.867 233.725 190.334 234.516C189.805 235.302 189.179 235.473 188.836 235.453L188.828 235.452M222.806 210.822L188.828 235.452M240.22 165.35L240.648 165.608M240.22 165.35C240.22 165.35 240.22 165.35 240.22 165.35L240.648 165.608M240.22 165.35C240.287 165.239 240.294 165.165 240.29 165.12C240.285 165.072 240.261 164.999 240.175 164.9C239.988 164.686 239.584 164.438 238.907 164.209C237.573 163.758 235.443 163.466 232.776 163.451C228.879 163.428 225.562 162.722 222.82 161.304M240.648 165.608C241.542 164.125 238.16 162.983 232.779 162.951C228.923 162.929 225.677 162.227 223.015 160.842M222.82 161.304C222.832 161.308 222.845 161.312 222.857 161.316L223.015 160.842M222.82 161.304C222.808 161.298 222.796 161.292 222.785 161.286L223.015 160.842M222.82 161.304L223.015 160.842M265.512 208.253C264.597 207.903 263.389 208.635 262.402 210.14C261.151 212.046 259.927 212.6 256.969 212.6C254.868 212.6 252.872 212.151 252.532 211.603C252.193 211.055 251.407 210.606 250.785 210.606C249.792 211.574 246.617 210.203 245.153 209.397L265.512 208.253ZM265.512 208.253C266.437 208.607 267.007 208.247 267.007 207.305M265.512 208.253L267.007 207.305M210.106 153.667C210.126 153.703 210.133 153.723 210.135 153.729M210.106 153.667L210.135 153.73C210.135 153.731 210.135 153.73 210.135 153.729M210.106 153.667C210.126 153.616 210.151 153.565 210.181 153.515C210.115 153.624 210.131 153.715 210.135 153.729M210.106 153.667L210.135 153.729M157.462 122.49L157.421 122.462L154.195 120.332L154.194 120.332C153.281 119.728 152.469 119.051 151.895 118.438C151.609 118.132 151.37 117.83 151.207 117.549C151.061 117.296 150.913 116.952 150.987 116.611L150.987 116.61C151.011 116.498 150.982 116.32 150.829 116.112C150.68 115.909 150.441 115.722 150.149 115.616L150.053 115.581L149.978 115.511C148.79 114.396 147.902 113.244 147.061 112.154C146.878 111.917 146.698 111.683 146.517 111.453C145.498 110.157 144.449 108.954 142.868 107.909L142.82 107.877L142.78 107.835C142.108 107.123 139.934 105.313 137.176 103.164C134.44 101.033 131.17 98.5983 128.326 96.6369L120.759 92.5314L120.654 92.4748L120.587 92.3774C119.859 91.3318 118.77 89.9874 116.224 88.2598C113.615 86.4901 108.931 83.1031 105.811 80.7302C104.431 79.6806 103.225 79.0148 102.202 78.4503C102.096 78.3917 101.992 78.3342 101.89 78.2774C100.827 77.6873 99.8991 77.1439 99.3213 76.2771L99.3002 76.2455L99.2841 76.211L92.7898 62.277L92.7557 62.2038L92.7464 62.1237C92.4436 59.5291 92.0665 57.0674 91.7037 55.1937C91.5221 54.2559 91.3455 53.4727 91.1854 52.8967C91.1051 52.608 91.0314 52.3801 90.9662 52.2145C90.9129 52.079 90.8774 52.0179 90.8667 51.9994C90.8626 51.9923 90.8622 51.9915 90.8657 51.9952C90.5359 51.6534 90.2788 51.1132 90.1043 50.5621C89.9259 49.9984 89.8131 49.3571 89.8131 48.7669C89.8131 48.3445 89.652 47.7947 89.3591 47.2487C89.0683 46.7065 88.6746 46.219 88.2639 45.9073L88.2499 45.8967L88.2367 45.8851L88.0584 45.729C86.7577 44.5897 85.1989 43.7856 83.5178 43.3857C83.1633 43.443 82.805 43.4231 82.5147 43.2808C82.3478 43.199 82.1878 43.0676 82.0895 42.8735C81.9925 42.682 81.9782 42.4738 82.0222 42.2777C82.0222 42.2698 82.0219 42.2464 82.0168 42.2025C82.0081 42.1265 81.9891 42.0212 81.9574 41.8855C81.8944 41.615 81.7893 41.2581 81.6477 40.8367C81.3652 39.9957 80.948 38.9295 80.4646 37.8448L80.9214 37.6413L80.4646 37.8448C77.0444 30.1687 75.8373 26.0033 75.8373 21.6418C75.8373 20.1202 75.671 18.9059 75.2973 17.821C74.9245 16.7385 74.3363 15.7586 73.4593 14.7174C72.7614 13.8892 72.1247 13.0324 71.6595 12.315C71.4274 11.9571 71.233 11.6262 71.0946 11.3461C71.0255 11.2062 70.9666 11.0715 70.924 10.9473C70.8867 10.8386 70.8509 10.7074 70.8464 10.5737C70.844 10.5678 70.84 10.5588 70.8336 10.5466C70.8098 10.5013 70.7661 10.4353 70.6943 10.3486C70.5507 10.1753 70.331 9.96217 70.0445 9.72078C69.4742 9.24031 68.6908 8.6906 67.8627 8.17953C67.0349 7.66867 66.1787 7.20644 65.4666 6.89605C65.1095 6.74039 64.8009 6.62837 64.5574 6.56578C64.4357 6.53454 64.3401 6.5182 64.2691 6.51267C64.2051 6.50769 64.1792 6.51298 64.1792 6.51275C64.0233 6.56045 63.8358 6.59116 63.6476 6.54804C63.4326 6.49877 63.2428 6.35592 63.1534 6.12784C63.0758 5.92979 63.0987 5.73025 63.1387 5.58059C63.1807 5.42343 63.2562 5.26526 63.3507 5.11232L63.3508 5.11208C63.4015 5.03023 63.4131 4.95382 63.3881 4.85444C63.3589 4.73838 63.2739 4.5781 63.0935 4.38016C62.7311 3.98249 62.0852 3.54316 61.2133 3.12495C59.4803 2.29379 57.0138 1.62128 54.6273 1.49903L157.462 122.49ZM157.462 122.49L157.508 122.508L157.462 122.49ZM50.032 3.3236L50.0307 3.33077L49.2304 8.0828L49.2141 8.17932L49.1627 8.26258C48.882 8.7168 48.3098 9.02851 47.692 9.22331C47.048 9.42636 46.2512 9.53551 45.3934 9.51068L45.3146 9.5084L45.2403 9.48201L40.6443 7.84806L40.5877 7.82791L40.5374 7.79491C40.2769 7.62386 40.1119 7.3479 39.9912 7.11305C39.9124 6.95962 39.8284 6.77172 39.7431 6.58081C39.6969 6.47753 39.6503 6.37336 39.604 6.27329C39.3245 5.67003 38.9512 4.97792 38.2722 4.33302L38.2722 4.33296C37.2469 3.35883 36.6071 2.8319 35.9337 2.56426C35.2799 2.30442 34.538 2.26897 33.2611 2.44305L33.2275 2.44763H33.1935C32.7876 2.44763 32.4584 2.77675 32.4584 3.18274V10.0129V16.2606V16.7378L31.9818 16.76L16.7582 17.4708C16.7582 17.4708 16.7581 17.4708 16.7581 17.4708C12.5773 17.6665 8.69195 17.9285 5.80131 18.1926C4.35501 18.3247 3.1635 18.4568 2.31054 18.5807C1.88286 18.6428 1.54925 18.7015 1.31451 18.7553C1.23275 18.774 1.16789 18.791 1.11812 18.8059C1.10612 18.854 1.09277 18.9165 1.07867 18.9955C1.03588 19.235 0.994264 19.5782 0.955437 20.0205C0.878033 20.9023 0.815085 22.138 0.769964 23.6408C0.679787 26.6442 0.661522 30.689 0.73729 35.0487L0.237374 35.0574L0.737291 35.0487L1.00528 50.4899L4.56791 50.9346L4.50598 51.4307L4.56793 50.9346C5.54089 51.0561 6.32133 51.1568 6.93287 51.3209C7.55842 51.4887 8.06387 51.7364 8.45268 52.1875C8.83067 52.626 9.05278 53.2054 9.22821 53.9365C9.40398 54.669 9.5469 55.62 9.72649 56.841C10.1343 59.6129 10.8088 69.7342 11.2287 79.3225L11.972 96.2809L25.5756 96.0124L39.6682 95.7343L39.8852 95.73L40.0366 95.8856L64.591 121.14C78.0941 135.028 92.5506 150.73 96.7104 156.032C100.644 161.045 102.824 163.654 105.889 165.669C108.968 167.693 112.961 169.132 120.576 171.708L120.576 171.708C120.654 171.734 120.718 171.774 120.755 171.798C120.784 171.818 120.814 171.84 120.843 171.862C120.857 171.873 120.871 171.884 120.885 171.895C120.97 171.963 121.07 172.053 121.182 172.157C121.406 172.367 121.697 172.659 122.044 173.019C122.738 173.739 123.67 174.747 124.757 175.947C126.932 178.349 129.738 181.531 132.528 184.747C135.318 187.963 138.094 191.216 140.208 193.759C141.264 195.029 142.157 196.125 142.805 196.951C143.128 197.364 143.393 197.713 143.587 197.985C143.684 198.12 143.767 198.241 143.831 198.343C143.889 198.436 143.951 198.542 143.988 198.641L50.032 3.3236ZM50.032 3.3236L50.033 3.3164M50.032 3.3236L50.033 3.3164M50.033 3.3164C50.1132 2.73783 50.1905 2.36057 50.3083 2.09653M50.033 3.3164L50.3083 2.09653M188.828 235.452L188.82 235.452M188.828 235.452L188.82 235.452M188.82 235.452C185.336 235.356 176.963 235.358 167.215 235.36C165.839 235.36 164.435 235.36 163.015 235.36H138.334C137.19 235.36 136.189 234.592 135.892 233.488C135.823 233.227 135.746 232.671 135.673 231.849C135.601 231.042 135.536 230.014 135.48 228.835C135.369 226.479 135.298 223.533 135.294 220.568L135.281 209.952L139.653 204.96C140.896 203.54 142.002 202.169 142.782 201.1M188.82 235.452L142.782 201.1M50.3083 2.09653C50.4119 1.86411 50.5419 1.73005 50.7627 1.63301M50.3083 2.09653L50.7627 1.63301M50.7627 1.63301C51.0156 1.5219 51.4078 1.4514 52.0536 1.43167M50.7627 1.63301L52.0536 1.43167M52.0536 1.43167C52.6918 1.41217 53.5235 1.44262 54.6273 1.49902L52.0536 1.43167ZM142.782 201.1C143.17 200.567 143.485 200.1 143.696 199.735M142.782 201.1L143.696 199.735M143.696 199.735C143.8 199.555 143.888 199.385 143.945 199.237M143.696 199.735L143.945 199.237M143.945 199.237C143.973 199.163 144 199.081 144.015 198.995M143.945 199.237L144.015 198.995M144.015 198.995C144.028 198.92 144.042 198.785 143.988 198.641L144.015 198.995ZM267.007 207.305C267.007 205.001 265.911 202.631 264.845 202.631L267.007 207.305ZM247.541 169.8L247.09 169.58L247.539 169.805C247.537 169.802 247.537 169.8 247.541 169.8ZM247.541 170.3L247.64 169.871C247.714 169.914 247.826 169.975 247.97 170.053C247.925 170.13 247.865 170.186 247.806 170.223C247.684 170.301 247.566 170.301 247.542 170.3H247.541ZM211.474 156.241C211.501 156.263 211.528 156.285 211.555 156.306L211.864 155.912L211.407 156.115C211.426 156.158 211.448 156.2 211.474 156.241ZM169.694 126.336C169.718 126.336 169.742 126.336 169.767 126.336L169.771 125.836L169.625 126.315L169.694 126.336ZM241.141 206.385C241.159 206.474 241.168 206.58 241.157 206.679C241.132 206.671 241.107 206.664 241.084 206.656L241.141 206.385ZM82.0273 42.2564L82.0272 42.2566L82.0273 42.2564ZM1.14972 18.7042C1.14977 18.7044 1.14876 18.7069 1.14652 18.7113C1.14854 18.7062 1.14966 18.704 1.14972 18.7042ZM1.02216 18.8395C1.02014 18.8406 1.01902 18.8411 1.01897 18.8411C1.01892 18.8411 1.01992 18.8406 1.02216 18.8395ZM163.549 124.963L163.737 124.5L163.436 124.899C163.454 124.912 163.473 124.926 163.491 124.94L163.549 124.963Z" fill="#03B23C" fill-opacity="0.1" stroke="#059B36"/>
</svg>
