<svg width="820" height="514" viewBox="0 0 820 514" fill="none" xmlns="http://www.w3.org/2000/svg">
<circle cx="2" cy="2" r="2" fill="#374957" fill-opacity="0.24"/>
<circle cx="36" cy="2" r="2" fill="#374957" fill-opacity="0.24"/>
<circle cx="70" cy="2" r="2" fill="#374957" fill-opacity="0.24"/>
<circle cx="104" cy="2" r="2" fill="#374957" fill-opacity="0.24"/>
<circle cx="138" cy="2" r="2" fill="#374957" fill-opacity="0.24"/>
<circle cx="172" cy="2" r="2" fill="#374957" fill-opacity="0.24"/>
<circle cx="206" cy="2" r="2" fill="#374957" fill-opacity="0.24"/>
<circle cx="240" cy="2" r="2" fill="#374957" fill-opacity="0.24"/>
<circle cx="274" cy="2" r="2" fill="#374957" fill-opacity="0.24"/>
<circle cx="308" cy="2" r="2" fill="#374957" fill-opacity="0.24"/>
<circle cx="342" cy="2" r="2" fill="#374957" fill-opacity="0.24"/>
<circle cx="376" cy="2" r="2" fill="#374957" fill-opacity="0.24"/>
<circle cx="410" cy="2" r="2" fill="#374957" fill-opacity="0.24"/>
<circle cx="444" cy="2" r="2" fill="#374957" fill-opacity="0.24"/>
<circle cx="478" cy="2" r="2" fill="#374957" fill-opacity="0.24"/>
<circle cx="512" cy="2" r="2" fill="#374957" fill-opacity="0.24"/>
<circle cx="546" cy="2" r="2" fill="#374957" fill-opacity="0.24"/>
<circle cx="580" cy="2" r="2" fill="#374957" fill-opacity="0.24"/>
<circle cx="614" cy="2" r="2" fill="#374957" fill-opacity="0.24"/>
<circle cx="648" cy="2" r="2" fill="#374957" fill-opacity="0.24"/>
<circle cx="682" cy="2" r="2" fill="#374957" fill-opacity="0.24"/>
<circle cx="716" cy="2" r="2" fill="#374957" fill-opacity="0.24"/>
<circle cx="750" cy="2" r="2" fill="#374957" fill-opacity="0.24"/>
<circle cx="784" cy="2" r="2" fill="#374957" fill-opacity="0.24"/>
<circle cx="818" cy="2" r="2" fill="#374957" fill-opacity="0.24"/>
<circle cx="2" cy="36" r="2" fill="#374957" fill-opacity="0.24"/>
<circle cx="36" cy="36" r="2" fill="#374957" fill-opacity="0.24"/>
<circle cx="70" cy="36" r="2" fill="#374957" fill-opacity="0.24"/>
<circle cx="104" cy="36" r="2" fill="#374957" fill-opacity="0.24"/>
<circle cx="138" cy="36" r="2" fill="#374957" fill-opacity="0.24"/>
<circle cx="172" cy="36" r="2" fill="#374957" fill-opacity="0.24"/>
<circle cx="206" cy="36" r="2" fill="#374957" fill-opacity="0.24"/>
<circle cx="240" cy="36" r="2" fill="#374957" fill-opacity="0.24"/>
<circle cx="274" cy="36" r="2" fill="#374957" fill-opacity="0.24"/>
<circle cx="308" cy="36" r="2" fill="#374957" fill-opacity="0.24"/>
<circle cx="342" cy="36" r="2" fill="#374957" fill-opacity="0.24"/>
<circle cx="376" cy="36" r="2" fill="#374957" fill-opacity="0.24"/>
<circle cx="410" cy="36" r="2" fill="#374957" fill-opacity="0.24"/>
<circle cx="444" cy="36" r="2" fill="#374957" fill-opacity="0.24"/>
<circle cx="478" cy="36" r="2" fill="#374957" fill-opacity="0.24"/>
<circle cx="512" cy="36" r="2" fill="#374957" fill-opacity="0.24"/>
<circle cx="546" cy="36" r="2" fill="#374957" fill-opacity="0.24"/>
<circle cx="580" cy="36" r="2" fill="#374957" fill-opacity="0.24"/>
<circle cx="614" cy="36" r="2" fill="#374957" fill-opacity="0.24"/>
<circle cx="648" cy="36" r="2" fill="#374957" fill-opacity="0.24"/>
<circle cx="682" cy="36" r="2" fill="#374957" fill-opacity="0.24"/>
<circle cx="716" cy="36" r="2" fill="#374957" fill-opacity="0.24"/>
<circle cx="750" cy="36" r="2" fill="#374957" fill-opacity="0.24"/>
<circle cx="784" cy="36" r="2" fill="#374957" fill-opacity="0.24"/>
<circle cx="818" cy="36" r="2" fill="#374957" fill-opacity="0.24"/>
<circle cx="2" cy="70" r="2" fill="#374957" fill-opacity="0.24"/>
<circle cx="36" cy="70" r="2" fill="#374957" fill-opacity="0.24"/>
<circle cx="70" cy="70" r="2" fill="#374957" fill-opacity="0.24"/>
<circle cx="104" cy="70" r="2" fill="#374957" fill-opacity="0.24"/>
<circle cx="138" cy="70" r="2" fill="#374957" fill-opacity="0.24"/>
<circle cx="172" cy="70" r="2" fill="#374957" fill-opacity="0.24"/>
<circle cx="206" cy="70" r="2" fill="#374957" fill-opacity="0.24"/>
<circle cx="240" cy="70" r="2" fill="#374957" fill-opacity="0.24"/>
<circle cx="274" cy="70" r="2" fill="#374957" fill-opacity="0.24"/>
<circle cx="308" cy="70" r="2" fill="#374957" fill-opacity="0.24"/>
<circle cx="342" cy="70" r="2" fill="#374957" fill-opacity="0.24"/>
<circle cx="376" cy="70" r="2" fill="#374957" fill-opacity="0.24"/>
<circle cx="410" cy="70" r="2" fill="#374957" fill-opacity="0.24"/>
<circle cx="444" cy="70" r="2" fill="#374957" fill-opacity="0.24"/>
<circle cx="478" cy="70" r="2" fill="#374957" fill-opacity="0.24"/>
<circle cx="512" cy="70" r="2" fill="#374957" fill-opacity="0.24"/>
<circle cx="546" cy="70" r="2" fill="#374957" fill-opacity="0.24"/>
<circle cx="580" cy="70" r="2" fill="#374957" fill-opacity="0.24"/>
<circle cx="614" cy="70" r="2" fill="#374957" fill-opacity="0.24"/>
<circle cx="648" cy="70" r="2" fill="#374957" fill-opacity="0.24"/>
<circle cx="682" cy="70" r="2" fill="#374957" fill-opacity="0.24"/>
<circle cx="716" cy="70" r="2" fill="#374957" fill-opacity="0.24"/>
<circle cx="750" cy="70" r="2" fill="#374957" fill-opacity="0.24"/>
<circle cx="784" cy="70" r="2" fill="#374957" fill-opacity="0.24"/>
<circle cx="818" cy="70" r="2" fill="#374957" fill-opacity="0.24"/>
<circle cx="2" cy="104" r="2" fill="#374957" fill-opacity="0.24"/>
<circle cx="36" cy="104" r="2" fill="#374957" fill-opacity="0.24"/>
<circle cx="70" cy="104" r="2" fill="#374957" fill-opacity="0.24"/>
<circle cx="104" cy="104" r="2" fill="#374957" fill-opacity="0.24"/>
<circle cx="138" cy="104" r="2" fill="#374957" fill-opacity="0.24"/>
<circle cx="172" cy="104" r="2" fill="#374957" fill-opacity="0.24"/>
<circle cx="206" cy="104" r="2" fill="#374957" fill-opacity="0.24"/>
<circle cx="240" cy="104" r="2" fill="#374957" fill-opacity="0.24"/>
<circle cx="274" cy="104" r="2" fill="#374957" fill-opacity="0.24"/>
<circle cx="308" cy="104" r="2" fill="#374957" fill-opacity="0.24"/>
<circle cx="342" cy="104" r="2" fill="#374957" fill-opacity="0.24"/>
<circle cx="376" cy="104" r="2" fill="#374957" fill-opacity="0.24"/>
<circle cx="410" cy="104" r="2" fill="#374957" fill-opacity="0.24"/>
<circle cx="444" cy="104" r="2" fill="#374957" fill-opacity="0.24"/>
<circle cx="478" cy="104" r="2" fill="#374957" fill-opacity="0.24"/>
<circle cx="512" cy="104" r="2" fill="#374957" fill-opacity="0.24"/>
<circle cx="546" cy="104" r="2" fill="#374957" fill-opacity="0.24"/>
<circle cx="580" cy="104" r="2" fill="#374957" fill-opacity="0.24"/>
<circle cx="614" cy="104" r="2" fill="#374957" fill-opacity="0.24"/>
<circle cx="648" cy="104" r="2" fill="#374957" fill-opacity="0.24"/>
<circle cx="682" cy="104" r="2" fill="#374957" fill-opacity="0.24"/>
<circle cx="716" cy="104" r="2" fill="#374957" fill-opacity="0.24"/>
<circle cx="750" cy="104" r="2" fill="#374957" fill-opacity="0.24"/>
<circle cx="784" cy="104" r="2" fill="#374957" fill-opacity="0.24"/>
<circle cx="818" cy="104" r="2" fill="#374957" fill-opacity="0.24"/>
<circle cx="2" cy="138" r="2" fill="#374957" fill-opacity="0.24"/>
<circle cx="36" cy="138" r="2" fill="#374957" fill-opacity="0.24"/>
<circle cx="70" cy="138" r="2" fill="#374957" fill-opacity="0.24"/>
<circle cx="104" cy="138" r="2" fill="#374957" fill-opacity="0.24"/>
<circle cx="138" cy="138" r="2" fill="#374957" fill-opacity="0.24"/>
<circle cx="172" cy="138" r="2" fill="#374957" fill-opacity="0.24"/>
<circle cx="206" cy="138" r="2" fill="#374957" fill-opacity="0.24"/>
<circle cx="240" cy="138" r="2" fill="#374957" fill-opacity="0.24"/>
<circle cx="274" cy="138" r="2" fill="#374957" fill-opacity="0.24"/>
<circle cx="308" cy="138" r="2" fill="#374957" fill-opacity="0.24"/>
<circle cx="342" cy="138" r="2" fill="#374957" fill-opacity="0.24"/>
<circle cx="376" cy="138" r="2" fill="#374957" fill-opacity="0.24"/>
<circle cx="410" cy="138" r="2" fill="#374957" fill-opacity="0.24"/>
<circle cx="444" cy="138" r="2" fill="#374957" fill-opacity="0.24"/>
<circle cx="478" cy="138" r="2" fill="#374957" fill-opacity="0.24"/>
<circle cx="512" cy="138" r="2" fill="#374957" fill-opacity="0.24"/>
<circle cx="546" cy="138" r="2" fill="#374957" fill-opacity="0.24"/>
<circle cx="580" cy="138" r="2" fill="#374957" fill-opacity="0.24"/>
<circle cx="614" cy="138" r="2" fill="#374957" fill-opacity="0.24"/>
<circle cx="648" cy="138" r="2" fill="#374957" fill-opacity="0.24"/>
<circle cx="682" cy="138" r="2" fill="#374957" fill-opacity="0.24"/>
<circle cx="716" cy="138" r="2" fill="#374957" fill-opacity="0.24"/>
<circle cx="750" cy="138" r="2" fill="#374957" fill-opacity="0.24"/>
<circle cx="784" cy="138" r="2" fill="#374957" fill-opacity="0.24"/>
<circle cx="818" cy="138" r="2" fill="#374957" fill-opacity="0.24"/>
<circle cx="2" cy="172" r="2" fill="#374957" fill-opacity="0.24"/>
<circle cx="36" cy="172" r="2" fill="#374957" fill-opacity="0.24"/>
<circle cx="70" cy="172" r="2" fill="#374957" fill-opacity="0.24"/>
<circle cx="104" cy="172" r="2" fill="#374957" fill-opacity="0.24"/>
<circle cx="138" cy="172" r="2" fill="#374957" fill-opacity="0.24"/>
<circle cx="172" cy="172" r="2" fill="#374957" fill-opacity="0.24"/>
<circle cx="206" cy="172" r="2" fill="#374957" fill-opacity="0.24"/>
<circle cx="240" cy="172" r="2" fill="#374957" fill-opacity="0.24"/>
<circle cx="274" cy="172" r="2" fill="#374957" fill-opacity="0.24"/>
<circle cx="308" cy="172" r="2" fill="#374957" fill-opacity="0.24"/>
<circle cx="342" cy="172" r="2" fill="#374957" fill-opacity="0.24"/>
<circle cx="376" cy="172" r="2" fill="#374957" fill-opacity="0.24"/>
<circle cx="410" cy="172" r="2" fill="#374957" fill-opacity="0.24"/>
<circle cx="444" cy="172" r="2" fill="#374957" fill-opacity="0.24"/>
<circle cx="478" cy="172" r="2" fill="#374957" fill-opacity="0.24"/>
<circle cx="512" cy="172" r="2" fill="#374957" fill-opacity="0.24"/>
<circle cx="546" cy="172" r="2" fill="#374957" fill-opacity="0.24"/>
<circle cx="580" cy="172" r="2" fill="#374957" fill-opacity="0.24"/>
<circle cx="614" cy="172" r="2" fill="#374957" fill-opacity="0.24"/>
<circle cx="648" cy="172" r="2" fill="#374957" fill-opacity="0.24"/>
<circle cx="682" cy="172" r="2" fill="#374957" fill-opacity="0.24"/>
<circle cx="716" cy="172" r="2" fill="#374957" fill-opacity="0.24"/>
<circle cx="750" cy="172" r="2" fill="#374957" fill-opacity="0.24"/>
<circle cx="784" cy="172" r="2" fill="#374957" fill-opacity="0.24"/>
<circle cx="818" cy="172" r="2" fill="#374957" fill-opacity="0.24"/>
<circle cx="2" cy="206" r="2" fill="#374957" fill-opacity="0.24"/>
<circle cx="36" cy="206" r="2" fill="#374957" fill-opacity="0.24"/>
<circle cx="70" cy="206" r="2" fill="#374957" fill-opacity="0.24"/>
<circle cx="104" cy="206" r="2" fill="#374957" fill-opacity="0.24"/>
<circle cx="138" cy="206" r="2" fill="#374957" fill-opacity="0.24"/>
<circle cx="172" cy="206" r="2" fill="#374957" fill-opacity="0.24"/>
<circle cx="206" cy="206" r="2" fill="#374957" fill-opacity="0.24"/>
<circle cx="240" cy="206" r="2" fill="#374957" fill-opacity="0.24"/>
<circle cx="274" cy="206" r="2" fill="#374957" fill-opacity="0.24"/>
<circle cx="308" cy="206" r="2" fill="#374957" fill-opacity="0.24"/>
<circle cx="342" cy="206" r="2" fill="#374957" fill-opacity="0.24"/>
<circle cx="376" cy="206" r="2" fill="#374957" fill-opacity="0.24"/>
<circle cx="410" cy="206" r="2" fill="#374957" fill-opacity="0.24"/>
<circle cx="444" cy="206" r="2" fill="#374957" fill-opacity="0.24"/>
<circle cx="478" cy="206" r="2" fill="#374957" fill-opacity="0.24"/>
<circle cx="512" cy="206" r="2" fill="#374957" fill-opacity="0.24"/>
<circle cx="546" cy="206" r="2" fill="#374957" fill-opacity="0.24"/>
<circle cx="580" cy="206" r="2" fill="#374957" fill-opacity="0.24"/>
<circle cx="614" cy="206" r="2" fill="#374957" fill-opacity="0.24"/>
<circle cx="648" cy="206" r="2" fill="#374957" fill-opacity="0.24"/>
<circle cx="682" cy="206" r="2" fill="#374957" fill-opacity="0.24"/>
<circle cx="716" cy="206" r="2" fill="#374957" fill-opacity="0.24"/>
<circle cx="750" cy="206" r="2" fill="#374957" fill-opacity="0.24"/>
<circle cx="784" cy="206" r="2" fill="#374957" fill-opacity="0.24"/>
<circle cx="818" cy="206" r="2" fill="#374957" fill-opacity="0.24"/>
<circle cx="2" cy="240" r="2" fill="#374957" fill-opacity="0.24"/>
<circle cx="36" cy="240" r="2" fill="#374957" fill-opacity="0.24"/>
<circle cx="70" cy="240" r="2" fill="#374957" fill-opacity="0.24"/>
<circle cx="104" cy="240" r="2" fill="#374957" fill-opacity="0.24"/>
<circle cx="138" cy="240" r="2" fill="#374957" fill-opacity="0.24"/>
<circle cx="172" cy="240" r="2" fill="#374957" fill-opacity="0.24"/>
<circle cx="206" cy="240" r="2" fill="#374957" fill-opacity="0.24"/>
<circle cx="240" cy="240" r="2" fill="#374957" fill-opacity="0.24"/>
<circle cx="274" cy="240" r="2" fill="#374957" fill-opacity="0.24"/>
<circle cx="308" cy="240" r="2" fill="#374957" fill-opacity="0.24"/>
<circle cx="342" cy="240" r="2" fill="#374957" fill-opacity="0.24"/>
<circle cx="376" cy="240" r="2" fill="#374957" fill-opacity="0.24"/>
<circle cx="410" cy="240" r="2" fill="#374957" fill-opacity="0.24"/>
<circle cx="444" cy="240" r="2" fill="#374957" fill-opacity="0.24"/>
<circle cx="478" cy="240" r="2" fill="#374957" fill-opacity="0.24"/>
<circle cx="512" cy="240" r="2" fill="#374957" fill-opacity="0.24"/>
<circle cx="546" cy="240" r="2" fill="#374957" fill-opacity="0.24"/>
<circle cx="580" cy="240" r="2" fill="#374957" fill-opacity="0.24"/>
<circle cx="614" cy="240" r="2" fill="#374957" fill-opacity="0.24"/>
<circle cx="648" cy="240" r="2" fill="#374957" fill-opacity="0.24"/>
<circle cx="682" cy="240" r="2" fill="#374957" fill-opacity="0.24"/>
<circle cx="716" cy="240" r="2" fill="#374957" fill-opacity="0.24"/>
<circle cx="750" cy="240" r="2" fill="#374957" fill-opacity="0.24"/>
<circle cx="784" cy="240" r="2" fill="#374957" fill-opacity="0.24"/>
<circle cx="818" cy="240" r="2" fill="#374957" fill-opacity="0.24"/>
<circle cx="2" cy="274" r="2" fill="#374957" fill-opacity="0.24"/>
<circle cx="36" cy="274" r="2" fill="#374957" fill-opacity="0.24"/>
<circle cx="70" cy="274" r="2" fill="#374957" fill-opacity="0.24"/>
<circle cx="104" cy="274" r="2" fill="#374957" fill-opacity="0.24"/>
<circle cx="138" cy="274" r="2" fill="#374957" fill-opacity="0.24"/>
<circle cx="172" cy="274" r="2" fill="#374957" fill-opacity="0.24"/>
<circle cx="206" cy="274" r="2" fill="#374957" fill-opacity="0.24"/>
<circle cx="240" cy="274" r="2" fill="#374957" fill-opacity="0.24"/>
<circle cx="274" cy="274" r="2" fill="#374957" fill-opacity="0.24"/>
<circle cx="308" cy="274" r="2" fill="#374957" fill-opacity="0.24"/>
<circle cx="342" cy="274" r="2" fill="#374957" fill-opacity="0.24"/>
<circle cx="376" cy="274" r="2" fill="#374957" fill-opacity="0.24"/>
<circle cx="410" cy="274" r="2" fill="#374957" fill-opacity="0.24"/>
<circle cx="444" cy="274" r="2" fill="#374957" fill-opacity="0.24"/>
<circle cx="478" cy="274" r="2" fill="#374957" fill-opacity="0.24"/>
<circle cx="512" cy="274" r="2" fill="#374957" fill-opacity="0.24"/>
<circle cx="546" cy="274" r="2" fill="#374957" fill-opacity="0.24"/>
<circle cx="580" cy="274" r="2" fill="#374957" fill-opacity="0.24"/>
<circle cx="614" cy="274" r="2" fill="#374957" fill-opacity="0.24"/>
<circle cx="648" cy="274" r="2" fill="#374957" fill-opacity="0.24"/>
<circle cx="682" cy="274" r="2" fill="#374957" fill-opacity="0.24"/>
<circle cx="716" cy="274" r="2" fill="#374957" fill-opacity="0.24"/>
<circle cx="750" cy="274" r="2" fill="#374957" fill-opacity="0.24"/>
<circle cx="784" cy="274" r="2" fill="#374957" fill-opacity="0.24"/>
<circle cx="818" cy="274" r="2" fill="#374957" fill-opacity="0.24"/>
<circle cx="2" cy="308" r="2" fill="#374957" fill-opacity="0.24"/>
<circle cx="36" cy="308" r="2" fill="#374957" fill-opacity="0.24"/>
<circle cx="70" cy="308" r="2" fill="#374957" fill-opacity="0.24"/>
<circle cx="104" cy="308" r="2" fill="#374957" fill-opacity="0.24"/>
<circle cx="138" cy="308" r="2" fill="#374957" fill-opacity="0.24"/>
<circle cx="172" cy="308" r="2" fill="#374957" fill-opacity="0.24"/>
<circle cx="206" cy="308" r="2" fill="#374957" fill-opacity="0.24"/>
<circle cx="240" cy="308" r="2" fill="#374957" fill-opacity="0.24"/>
<circle cx="274" cy="308" r="2" fill="#374957" fill-opacity="0.24"/>
<circle cx="308" cy="308" r="2" fill="#374957" fill-opacity="0.24"/>
<circle cx="342" cy="308" r="2" fill="#374957" fill-opacity="0.24"/>
<circle cx="376" cy="308" r="2" fill="#374957" fill-opacity="0.24"/>
<circle cx="410" cy="308" r="2" fill="#374957" fill-opacity="0.24"/>
<circle cx="444" cy="308" r="2" fill="#374957" fill-opacity="0.24"/>
<circle cx="478" cy="308" r="2" fill="#374957" fill-opacity="0.24"/>
<circle cx="512" cy="308" r="2" fill="#374957" fill-opacity="0.24"/>
<circle cx="546" cy="308" r="2" fill="#374957" fill-opacity="0.24"/>
<circle cx="580" cy="308" r="2" fill="#374957" fill-opacity="0.24"/>
<circle cx="614" cy="308" r="2" fill="#374957" fill-opacity="0.24"/>
<circle cx="648" cy="308" r="2" fill="#374957" fill-opacity="0.24"/>
<circle cx="682" cy="308" r="2" fill="#374957" fill-opacity="0.24"/>
<circle cx="716" cy="308" r="2" fill="#374957" fill-opacity="0.24"/>
<circle cx="750" cy="308" r="2" fill="#374957" fill-opacity="0.24"/>
<circle cx="784" cy="308" r="2" fill="#374957" fill-opacity="0.24"/>
<circle cx="818" cy="308" r="2" fill="#374957" fill-opacity="0.24"/>
<circle cx="2" cy="342" r="2" fill="#374957" fill-opacity="0.24"/>
<circle cx="36" cy="342" r="2" fill="#374957" fill-opacity="0.24"/>
<circle cx="70" cy="342" r="2" fill="#374957" fill-opacity="0.24"/>
<circle cx="104" cy="342" r="2" fill="#374957" fill-opacity="0.24"/>
<circle cx="138" cy="342" r="2" fill="#374957" fill-opacity="0.24"/>
<circle cx="172" cy="342" r="2" fill="#374957" fill-opacity="0.24"/>
<circle cx="206" cy="342" r="2" fill="#374957" fill-opacity="0.24"/>
<circle cx="240" cy="342" r="2" fill="#374957" fill-opacity="0.24"/>
<circle cx="274" cy="342" r="2" fill="#374957" fill-opacity="0.24"/>
<circle cx="308" cy="342" r="2" fill="#374957" fill-opacity="0.24"/>
<circle cx="342" cy="342" r="2" fill="#374957" fill-opacity="0.24"/>
<circle cx="376" cy="342" r="2" fill="#374957" fill-opacity="0.24"/>
<circle cx="410" cy="342" r="2" fill="#374957" fill-opacity="0.24"/>
<circle cx="444" cy="342" r="2" fill="#374957" fill-opacity="0.24"/>
<circle cx="478" cy="342" r="2" fill="#374957" fill-opacity="0.24"/>
<circle cx="512" cy="342" r="2" fill="#374957" fill-opacity="0.24"/>
<circle cx="546" cy="342" r="2" fill="#374957" fill-opacity="0.24"/>
<circle cx="580" cy="342" r="2" fill="#374957" fill-opacity="0.24"/>
<circle cx="614" cy="342" r="2" fill="#374957" fill-opacity="0.24"/>
<circle cx="648" cy="342" r="2" fill="#374957" fill-opacity="0.24"/>
<circle cx="682" cy="342" r="2" fill="#374957" fill-opacity="0.24"/>
<circle cx="716" cy="342" r="2" fill="#374957" fill-opacity="0.24"/>
<circle cx="750" cy="342" r="2" fill="#374957" fill-opacity="0.24"/>
<circle cx="784" cy="342" r="2" fill="#374957" fill-opacity="0.24"/>
<circle cx="818" cy="342" r="2" fill="#374957" fill-opacity="0.24"/>
<circle cx="2" cy="376" r="2" fill="#374957" fill-opacity="0.24"/>
<circle cx="36" cy="376" r="2" fill="#374957" fill-opacity="0.24"/>
<circle cx="70" cy="376" r="2" fill="#374957" fill-opacity="0.24"/>
<circle cx="104" cy="376" r="2" fill="#374957" fill-opacity="0.24"/>
<circle cx="138" cy="376" r="2" fill="#374957" fill-opacity="0.24"/>
<circle cx="172" cy="376" r="2" fill="#374957" fill-opacity="0.24"/>
<circle cx="206" cy="376" r="2" fill="#374957" fill-opacity="0.24"/>
<circle cx="240" cy="376" r="2" fill="#374957" fill-opacity="0.24"/>
<circle cx="274" cy="376" r="2" fill="#374957" fill-opacity="0.24"/>
<circle cx="308" cy="376" r="2" fill="#374957" fill-opacity="0.24"/>
<circle cx="342" cy="376" r="2" fill="#374957" fill-opacity="0.24"/>
<circle cx="376" cy="376" r="2" fill="#374957" fill-opacity="0.24"/>
<circle cx="410" cy="376" r="2" fill="#374957" fill-opacity="0.24"/>
<circle cx="444" cy="376" r="2" fill="#374957" fill-opacity="0.24"/>
<circle cx="478" cy="376" r="2" fill="#374957" fill-opacity="0.24"/>
<circle cx="512" cy="376" r="2" fill="#374957" fill-opacity="0.24"/>
<circle cx="546" cy="376" r="2" fill="#374957" fill-opacity="0.24"/>
<circle cx="580" cy="376" r="2" fill="#374957" fill-opacity="0.24"/>
<circle cx="614" cy="376" r="2" fill="#374957" fill-opacity="0.24"/>
<circle cx="648" cy="376" r="2" fill="#374957" fill-opacity="0.24"/>
<circle cx="682" cy="376" r="2" fill="#374957" fill-opacity="0.24"/>
<circle cx="716" cy="376" r="2" fill="#374957" fill-opacity="0.24"/>
<circle cx="750" cy="376" r="2" fill="#374957" fill-opacity="0.24"/>
<circle cx="784" cy="376" r="2" fill="#374957" fill-opacity="0.24"/>
<circle cx="818" cy="376" r="2" fill="#374957" fill-opacity="0.24"/>
<circle cx="2" cy="410" r="2" fill="#374957" fill-opacity="0.24"/>
<circle cx="36" cy="410" r="2" fill="#374957" fill-opacity="0.24"/>
<circle cx="70" cy="410" r="2" fill="#374957" fill-opacity="0.24"/>
<circle cx="104" cy="410" r="2" fill="#374957" fill-opacity="0.24"/>
<circle cx="138" cy="410" r="2" fill="#374957" fill-opacity="0.24"/>
<circle cx="172" cy="410" r="2" fill="#374957" fill-opacity="0.24"/>
<circle cx="206" cy="410" r="2" fill="#374957" fill-opacity="0.24"/>
<circle cx="240" cy="410" r="2" fill="#374957" fill-opacity="0.24"/>
<circle cx="274" cy="410" r="2" fill="#374957" fill-opacity="0.24"/>
<circle cx="308" cy="410" r="2" fill="#374957" fill-opacity="0.24"/>
<circle cx="342" cy="410" r="2" fill="#374957" fill-opacity="0.24"/>
<circle cx="376" cy="410" r="2" fill="#374957" fill-opacity="0.24"/>
<circle cx="410" cy="410" r="2" fill="#374957" fill-opacity="0.24"/>
<circle cx="444" cy="410" r="2" fill="#374957" fill-opacity="0.24"/>
<circle cx="478" cy="410" r="2" fill="#374957" fill-opacity="0.24"/>
<circle cx="512" cy="410" r="2" fill="#374957" fill-opacity="0.24"/>
<circle cx="546" cy="410" r="2" fill="#374957" fill-opacity="0.24"/>
<circle cx="580" cy="410" r="2" fill="#374957" fill-opacity="0.24"/>
<circle cx="614" cy="410" r="2" fill="#374957" fill-opacity="0.24"/>
<circle cx="648" cy="410" r="2" fill="#374957" fill-opacity="0.24"/>
<circle cx="682" cy="410" r="2" fill="#374957" fill-opacity="0.24"/>
<circle cx="716" cy="410" r="2" fill="#374957" fill-opacity="0.24"/>
<circle cx="750" cy="410" r="2" fill="#374957" fill-opacity="0.24"/>
<circle cx="784" cy="410" r="2" fill="#374957" fill-opacity="0.24"/>
<circle cx="818" cy="410" r="2" fill="#374957" fill-opacity="0.24"/>
<circle cx="2" cy="444" r="2" fill="#374957" fill-opacity="0.24"/>
<circle cx="36" cy="444" r="2" fill="#374957" fill-opacity="0.24"/>
<circle cx="70" cy="444" r="2" fill="#374957" fill-opacity="0.24"/>
<circle cx="104" cy="444" r="2" fill="#374957" fill-opacity="0.24"/>
<circle cx="138" cy="444" r="2" fill="#374957" fill-opacity="0.24"/>
<circle cx="172" cy="444" r="2" fill="#374957" fill-opacity="0.24"/>
<circle cx="206" cy="444" r="2" fill="#374957" fill-opacity="0.24"/>
<circle cx="240" cy="444" r="2" fill="#374957" fill-opacity="0.24"/>
<circle cx="274" cy="444" r="2" fill="#374957" fill-opacity="0.24"/>
<circle cx="308" cy="444" r="2" fill="#374957" fill-opacity="0.24"/>
<circle cx="342" cy="444" r="2" fill="#374957" fill-opacity="0.24"/>
<circle cx="376" cy="444" r="2" fill="#374957" fill-opacity="0.24"/>
<circle cx="410" cy="444" r="2" fill="#374957" fill-opacity="0.24"/>
<circle cx="444" cy="444" r="2" fill="#374957" fill-opacity="0.24"/>
<circle cx="478" cy="444" r="2" fill="#374957" fill-opacity="0.24"/>
<circle cx="512" cy="444" r="2" fill="#374957" fill-opacity="0.24"/>
<circle cx="546" cy="444" r="2" fill="#374957" fill-opacity="0.24"/>
<circle cx="580" cy="444" r="2" fill="#374957" fill-opacity="0.24"/>
<circle cx="614" cy="444" r="2" fill="#374957" fill-opacity="0.24"/>
<circle cx="648" cy="444" r="2" fill="#374957" fill-opacity="0.24"/>
<circle cx="682" cy="444" r="2" fill="#374957" fill-opacity="0.24"/>
<circle cx="716" cy="444" r="2" fill="#374957" fill-opacity="0.24"/>
<circle cx="750" cy="444" r="2" fill="#374957" fill-opacity="0.24"/>
<circle cx="784" cy="444" r="2" fill="#374957" fill-opacity="0.24"/>
<circle cx="818" cy="444" r="2" fill="#374957" fill-opacity="0.24"/>
<circle cx="2" cy="478" r="2" fill="#374957" fill-opacity="0.24"/>
<circle cx="36" cy="478" r="2" fill="#374957" fill-opacity="0.24"/>
<circle cx="70" cy="478" r="2" fill="#374957" fill-opacity="0.24"/>
<circle cx="104" cy="478" r="2" fill="#374957" fill-opacity="0.24"/>
<circle cx="138" cy="478" r="2" fill="#374957" fill-opacity="0.24"/>
<circle cx="172" cy="478" r="2" fill="#374957" fill-opacity="0.24"/>
<circle cx="206" cy="478" r="2" fill="#374957" fill-opacity="0.24"/>
<circle cx="240" cy="478" r="2" fill="#374957" fill-opacity="0.24"/>
<circle cx="274" cy="478" r="2" fill="#374957" fill-opacity="0.24"/>
<circle cx="308" cy="478" r="2" fill="#374957" fill-opacity="0.24"/>
<circle cx="342" cy="478" r="2" fill="#374957" fill-opacity="0.24"/>
<circle cx="376" cy="478" r="2" fill="#374957" fill-opacity="0.24"/>
<circle cx="410" cy="478" r="2" fill="#374957" fill-opacity="0.24"/>
<circle cx="444" cy="478" r="2" fill="#374957" fill-opacity="0.24"/>
<circle cx="478" cy="478" r="2" fill="#374957" fill-opacity="0.24"/>
<circle cx="512" cy="478" r="2" fill="#374957" fill-opacity="0.24"/>
<circle cx="546" cy="478" r="2" fill="#374957" fill-opacity="0.24"/>
<circle cx="580" cy="478" r="2" fill="#374957" fill-opacity="0.24"/>
<circle cx="614" cy="478" r="2" fill="#374957" fill-opacity="0.24"/>
<circle cx="648" cy="478" r="2" fill="#374957" fill-opacity="0.24"/>
<circle cx="682" cy="478" r="2" fill="#374957" fill-opacity="0.24"/>
<circle cx="716" cy="478" r="2" fill="#374957" fill-opacity="0.24"/>
<circle cx="750" cy="478" r="2" fill="#374957" fill-opacity="0.24"/>
<circle cx="784" cy="478" r="2" fill="#374957" fill-opacity="0.24"/>
<circle cx="818" cy="478" r="2" fill="#374957" fill-opacity="0.24"/>
<circle cx="2" cy="512" r="2" fill="#374957" fill-opacity="0.24"/>
<circle cx="36" cy="512" r="2" fill="#374957" fill-opacity="0.24"/>
<circle cx="70" cy="512" r="2" fill="#374957" fill-opacity="0.24"/>
<circle cx="104" cy="512" r="2" fill="#374957" fill-opacity="0.24"/>
<circle cx="138" cy="512" r="2" fill="#374957" fill-opacity="0.24"/>
<circle cx="172" cy="512" r="2" fill="#374957" fill-opacity="0.24"/>
<circle cx="206" cy="512" r="2" fill="#374957" fill-opacity="0.24"/>
<circle cx="240" cy="512" r="2" fill="#374957" fill-opacity="0.24"/>
<circle cx="274" cy="512" r="2" fill="#374957" fill-opacity="0.24"/>
<circle cx="308" cy="512" r="2" fill="#374957" fill-opacity="0.24"/>
<circle cx="342" cy="512" r="2" fill="#374957" fill-opacity="0.24"/>
<circle cx="376" cy="512" r="2" fill="#374957" fill-opacity="0.24"/>
<circle cx="410" cy="512" r="2" fill="#374957" fill-opacity="0.24"/>
<circle cx="444" cy="512" r="2" fill="#374957" fill-opacity="0.24"/>
<circle cx="478" cy="512" r="2" fill="#374957" fill-opacity="0.24"/>
<circle cx="512" cy="512" r="2" fill="#374957" fill-opacity="0.24"/>
<circle cx="546" cy="512" r="2" fill="#374957" fill-opacity="0.24"/>
<circle cx="580" cy="512" r="2" fill="#374957" fill-opacity="0.24"/>
<circle cx="614" cy="512" r="2" fill="#374957" fill-opacity="0.24"/>
<circle cx="648" cy="512" r="2" fill="#374957" fill-opacity="0.24"/>
<circle cx="682" cy="512" r="2" fill="#374957" fill-opacity="0.24"/>
<circle cx="716" cy="512" r="2" fill="#374957" fill-opacity="0.24"/>
<circle cx="750" cy="512" r="2" fill="#374957" fill-opacity="0.24"/>
<circle cx="784" cy="512" r="2" fill="#374957" fill-opacity="0.24"/>
<circle cx="818" cy="512" r="2" fill="#374957" fill-opacity="0.24"/>
</svg>
