<svg width="842" height="596" viewBox="0 0 842 596" fill="none" xmlns="http://www.w3.org/2000/svg">
<path d="M421 442.29C576.617 442.29 702.77 373.266 702.77 288.12C702.77 202.974 576.617 133.95 421 133.95C265.383 133.95 139.23 202.974 139.23 288.12C139.23 373.266 265.383 442.29 421 442.29Z" fill="#119B48" stroke="#119B48" stroke-width="8.6286" stroke-miterlimit="10"/>
<path d="M448.06 137.45C448.58 150.11 449.3 162.79 449.67 175.49C450.55 205.65 450.98 235.89 450.86 265.96C450.75 296.03 450.1 325.91 449 355.35C447.9 384.8 446.37 413.81 444.59 442.28L441.46 492.3L397.36 489.5C366.21 487.52 335.29 482.86 305.02 475.23C289.89 471.42 274.92 466.85 260.2 461.43C245.48 456.02 231 449.77 216.9 442.49C202.81 435.22 189.08 426.94 176.01 417.37C162.95 407.79 150.5 396.94 139.37 384.29C128.26 371.69 118.42 357.21 111.52 340.81C104.57 324.5 101.02 306.08 102.01 288.1C102.99 270.1 108.45 252.7 116.81 237.96C125.13 223.12 135.96 210.69 147.74 200.2C159.53 189.68 172.36 181.05 185.58 173.71C198.82 166.38 212.51 160.36 226.4 155.32C240.3 150.28 254.42 146.26 268.63 143.06C282.84 139.85 297.16 137.46 311.5 135.8C340.18 132.48 368.94 131.99 397.35 133.95L448.06 137.45ZM352.07 139.33C339.12 141.49 326.29 144.14 313.67 147.41C300.07 150.93 286.71 155.12 273.7 160.03C260.68 164.92 248.02 170.54 235.9 176.94C223.79 183.34 212.22 190.51 201.54 198.54C190.88 206.56 181.09 215.43 172.9 225.13C164.69 234.79 158.09 245.28 153.98 256.03C149.8 266.77 148.29 277.67 149.24 288.1C150.28 298.55 153.71 308.42 159.3 317.59C164.85 326.76 172.43 335.22 181.31 342.77C190.16 350.34 200.31 356.99 211.13 362.78C221.96 368.57 233.49 373.5 245.4 377.66C257.31 381.83 269.62 385.22 282.13 387.91C294.63 390.62 307.35 392.63 320.15 394.01C345.76 396.77 371.69 397.04 397.36 395.07L350.14 442.29C348.36 419.37 346.83 396.99 345.73 375.05C344.63 353.1 343.98 331.59 343.87 310.27C343.75 288.95 344.18 267.81 345.06 246.57C345.94 225.34 347.27 204.01 348.87 182.43L352.07 139.33Z" fill="#F1E912"/>
<path d="M406.41 133.95L406.31 144.51H388.43L388.33 133.95H406.41Z" fill="#119B48"/>
<path d="M406.22 155.06L406.12 165.62H388.62L388.52 155.06H406.22Z" fill="#119B48"/>
<path d="M406.02 176.17L405.93 186.73H388.81L388.72 176.17H406.02Z" fill="#119B48"/>
<path d="M405.83 197.29L405.74 207.84H389.01L388.91 197.29H405.83Z" fill="#119B48"/>
<path d="M405.64 218.4L405.54 228.95H389.2L389.1 218.4H405.64Z" fill="#119B48"/>
<path d="M405.45 239.51L405.35 250.06H389.39L389.29 239.51H405.45Z" fill="#119B48"/>
<path d="M405.25 260.62L405.16 271.18H389.58L389.49 260.62H405.25Z" fill="#119B48"/>
<path d="M405.06 281.73L404.96 292.29H389.78L389.68 281.73H405.06Z" fill="#119B48"/>
<path d="M404.87 302.84L404.77 313.4H389.97L389.87 302.84H404.87Z" fill="#119B48"/>
<path d="M404.68 323.95L404.58 334.51H390.16L390.07 323.95H404.68Z" fill="#119B48"/>
<path d="M404.48 345.07L404.39 355.62H390.35L390.26 345.07H404.48Z" fill="#119B48"/>
<path d="M404.29 366.18L404.19 376.73H390.55L390.45 366.18H404.29Z" fill="#119B48"/>
<path d="M404.1 387.29L404 397.85H390.74L390.64 387.29H404.1Z" fill="#119B48"/>
<path d="M403.9 408.4L403.81 418.96H390.93L390.84 408.4H403.9Z" fill="#119B48"/>
<path d="M403.71 429.51L403.62 440.07H391.13L391.03 429.51H403.71Z" fill="#119B48"/>
<path d="M388.93 448.37L378.25 447.97L378.72 435.88L389.14 436.07L388.93 448.37Z" fill="#119B48"/>
<path d="M367.58 447.34L356.93 446.47L357.9 434.8L368.31 435.45L367.58 447.34Z" fill="#119B48"/>
<path d="M346.29 445.37L335.69 444.02L337.15 432.78L347.52 433.91L346.29 445.37Z" fill="#119B48"/>
<path d="M325.12 442.42L314.59 440.57L316.52 429.79L326.82 431.41L325.12 442.42Z" fill="#119B48"/>
<path d="M304.11 438.46L293.69 436.09L296.07 425.8L306.27 427.92L304.11 438.46Z" fill="#119B48"/>
<path d="M283.32 433.45L273.03 430.54L275.85 420.76L285.93 423.41L283.32 433.45Z" fill="#119B48"/>
<path d="M262.82 427.34L252.71 423.84L255.96 414.61L265.86 417.83L262.82 427.34Z" fill="#119B48"/>
<path d="M242.7 420.04L232.81 415.93L236.49 407.27L246.16 411.09L242.7 420.04Z" fill="#119B48"/>
<path d="M223.06 411.48L213.47 406.69L217.57 398.66L226.95 403.13L223.06 411.48Z" fill="#119B48"/>
<path d="M204.05 401.54L194.85 396.01L199.39 388.66L208.38 393.84L204.05 401.54Z" fill="#119B48"/>
<path d="M185.89 390.07L177.21 383.71L182.19 377.13L190.65 383.1L185.89 390.07Z" fill="#119B48"/>
<path d="M168.85 376.9L160.89 369.61L166.32 363.92L174.06 370.75L168.85 376.9Z" fill="#119B48"/>
<path d="M153.38 361.83L146.42 353.53L152.28 348.89L159.03 356.64L153.38 361.83Z" fill="#119B48"/>
<path d="M140.11 344.7C138.13 341.67 136.27 338.55 134.56 335.34L140.79 331.95C142.45 334.93 144.25 337.83 146.17 340.65L140.11 344.7Z" fill="#119B48"/>
<path d="M129.91 325.49C128.53 322.13 127.31 318.69 126.3 315.19L132.72 313.26C133.73 316.5 134.92 319.69 136.27 322.81L129.91 325.49Z" fill="#119B48"/>
<path d="M123.84 304.54C123.23 300.95 122.82 297.32 122.64 293.68L128.95 293.3C129.18 296.69 129.62 300.06 130.25 303.39L123.84 304.54Z" fill="#119B48"/>
<path d="M122.73 282.76C122.98 279.13 123.44 275.52 124.11 271.94L129.95 272.98C129.38 276.34 129.02 279.72 128.85 283.11L122.73 282.76Z" fill="#119B48"/>
<path d="M126.72 261.38C127.79 257.92 129.05 254.52 130.48 251.2L135.6 253.35C134.3 256.52 133.18 259.75 132.23 263.02L126.72 261.38Z" fill="#119B48"/>
<path d="M135.25 241.49C136.99 238.34 138.89 235.27 140.9 232.3L145.2 235.16C143.32 238.05 141.57 241.01 139.96 244.04L135.25 241.49Z" fill="#119B48"/>
<path d="M147.3 223.65L154.33 215.54L157.85 218.77L151.2 226.73L147.3 223.65Z" fill="#119B48"/>
<path d="M161.89 207.96L169.9 200.88L172.74 204.23L165.06 211.27L161.89 207.96Z" fill="#119B48"/>
<path d="M178.28 194.28L186.98 188.13L189.24 191.44L180.82 197.62L178.28 194.28Z" fill="#119B48"/>
<path d="M195.95 182.4L205.16 177.08L206.93 180.24L197.96 185.64L195.95 182.4Z" fill="#119B48"/>
<path d="M214.56 172.14L224.14 167.56L225.51 170.49L216.12 175.19L214.56 172.14Z" fill="#119B48"/>
<path d="M233.86 163.33L243.72 159.42L244.75 162.08L235.06 166.13L233.86 163.33Z" fill="#119B48"/>
<path d="M253.69 155.83L263.77 152.55L264.52 154.9L254.58 158.34L253.69 155.83Z" fill="#119B48"/>
<path d="M273.92 149.56L284.15 146.86L284.67 148.87L274.55 151.75L273.92 149.56Z" fill="#119B48"/>
<path d="M294.45 144.43L304.8 142.26L305.14 143.93L294.88 146.27L294.45 144.43Z" fill="#119B48"/>
<path d="M315.21 140.36L325.65 138.72L325.85 140.01L315.47 141.84L315.21 140.36Z" fill="#119B48"/>
<path d="M336.13 137.32L346.63 136.17L346.73 137.09L336.27 138.43L336.13 137.32Z" fill="#119B48"/>
<path d="M357.15 135.26L367.69 134.59L367.73 135.13L357.22 135.99L357.15 135.26Z" fill="#119B48"/>
<path d="M378.25 134.15L388.8 133.95L388.81 134.1L378.26 134.5L378.25 134.15Z" fill="#119B48"/>
<path d="M397.37 442.29V133.95" stroke="#F1E912" stroke-width="8.4733" stroke-miterlimit="10"/>
<path d="M488.61 138.99L491.6 180.93C493.15 202.64 494.44 224.1 495.29 245.47C496.15 266.84 496.56 288.13 496.44 309.58C496.33 331.04 495.7 352.68 494.64 374.74C493.58 396.8 492.09 419.28 490.37 442.28L444.62 396.53C470.37 398.43 496.38 398.09 522.06 395.26C534.9 393.85 547.65 391.79 560.19 389.04C572.73 386.31 585.07 382.87 597.02 378.65C608.96 374.44 620.53 369.46 631.39 363.61C642.24 357.76 652.43 351.05 661.32 343.4C670.23 335.78 677.85 327.22 683.42 317.94C689.04 308.66 692.47 298.65 693.47 288.09C694.39 277.54 692.82 266.54 688.57 255.74C684.39 244.93 677.72 234.41 669.46 224.73C661.21 215.02 651.38 206.16 640.68 198.15C629.97 190.14 618.36 182.98 606.22 176.6C594.08 170.22 581.39 164.63 568.35 159.76C555.32 154.88 541.94 150.71 528.33 147.22C515.29 143.87 502.02 141.15 488.61 138.99ZM395.58 137.23L444.63 133.95C473.04 132.05 501.79 132.6 530.45 135.98C544.78 137.67 559.08 140.08 573.28 143.32C587.48 146.55 601.58 150.6 615.44 155.66C629.31 160.71 642.96 166.75 656.16 174.1C669.34 181.45 682.12 190.08 693.86 200.59C705.58 211.06 716.35 223.47 724.6 238.25C732.9 252.93 738.29 270.23 739.24 288.11C740.2 305.98 736.65 324.26 729.72 340.46C722.85 356.75 713.04 371.13 701.97 383.66C690.88 396.23 678.46 407.02 665.43 416.54C652.39 426.05 638.7 434.27 624.64 441.5C610.58 448.73 596.13 454.94 581.45 460.31C566.76 465.69 551.83 470.22 536.74 473.99C506.55 481.54 475.71 486.14 444.64 488.05L401.83 490.69L398.89 442.3C397.17 413.91 395.68 385.01 394.62 355.67C393.56 326.34 392.92 296.59 392.82 266.66C392.71 236.73 393.12 206.62 393.97 176.6C394.33 163.45 395.06 150.33 395.58 137.23Z" fill="#F1E912"/>
<path d="M453.67 133.95L453.57 144.51H435.69L435.59 133.95H453.67Z" fill="#119B48"/>
<path d="M453.48 155.06L453.38 165.62H435.88L435.78 155.06H453.48Z" fill="#119B48"/>
<path d="M453.28 176.17L453.19 186.73H436.07L435.97 176.17H453.28Z" fill="#119B48"/>
<path d="M453.09 197.29L452.99 207.84H436.26L436.17 197.29H453.09Z" fill="#119B48"/>
<path d="M452.9 218.4L452.8 228.95H436.46L436.36 218.4H452.9Z" fill="#119B48"/>
<path d="M452.7 239.51L452.61 250.06H436.65L436.55 239.51H452.7Z" fill="#119B48"/>
<path d="M452.51 260.62L452.421 271.18H436.84L436.75 260.62H452.51Z" fill="#119B48"/>
<path d="M452.32 281.73L452.22 292.29H437.03L436.94 281.73H452.32Z" fill="#119B48"/>
<path d="M452.13 302.84L452.03 313.4H437.23L437.13 302.84H452.13Z" fill="#119B48"/>
<path d="M451.93 323.95L451.84 334.51H437.42L437.32 323.95H451.93Z" fill="#119B48"/>
<path d="M451.741 345.07L451.641 355.62H437.611L437.521 345.07H451.741Z" fill="#119B48"/>
<path d="M451.55 366.18L451.45 376.73H437.81L437.71 366.18H451.55Z" fill="#119B48"/>
<path d="M451.36 387.29L451.26 397.85H438L437.9 387.29H451.36Z" fill="#119B48"/>
<path d="M451.16 408.4L451.07 418.96H438.19L438.09 408.4H451.16Z" fill="#119B48"/>
<path d="M450.971 429.51L450.871 440.07H438.381L438.291 429.51H450.971Z" fill="#119B48"/>
<path d="M452.86 436.07L463.28 435.88L463.75 447.97L453.07 448.37L452.86 436.07Z" fill="#119B48"/>
<path d="M473.69 435.45L484.1 434.8L485.07 446.47L474.42 447.34L473.69 435.45Z" fill="#119B48"/>
<path d="M494.48 433.91L504.85 432.78L506.31 444.02L495.7 445.37L494.48 433.91Z" fill="#119B48"/>
<path d="M515.18 431.41L525.48 429.79L527.4 440.57L516.88 442.42L515.18 431.41Z" fill="#119B48"/>
<path d="M535.73 427.92L545.93 425.8L548.31 436.09L537.891 438.46L535.73 427.92Z" fill="#119B48"/>
<path d="M556.07 423.41L566.15 420.76L568.97 430.54L558.67 433.45L556.07 423.41Z" fill="#119B48"/>
<path d="M576.14 417.83L586.04 414.61L589.29 423.84L579.17 427.34L576.14 417.83Z" fill="#119B48"/>
<path d="M595.84 411.09L605.51 407.27L609.19 415.93L599.3 420.04L595.84 411.09Z" fill="#119B48"/>
<path d="M615.05 403.13L624.43 398.66L628.53 406.69L618.94 411.48L615.05 403.13Z" fill="#119B48"/>
<path d="M633.62 393.84L642.61 388.66L647.15 396.01L637.94 401.54L633.62 393.84Z" fill="#119B48"/>
<path d="M651.35 383.1L659.81 377.13L664.79 383.71L656.11 390.07L651.35 383.1Z" fill="#119B48"/>
<path d="M667.94 370.75L675.68 363.92L681.11 369.61L673.15 376.9L667.94 370.75Z" fill="#119B48"/>
<path d="M682.97 356.64L689.72 348.89L695.58 353.53L688.62 361.83L682.97 356.64Z" fill="#119B48"/>
<path d="M695.831 340.66C697.751 337.84 699.551 334.93 701.211 331.96L707.441 335.35C705.731 338.55 703.881 341.67 701.891 344.71L695.831 340.66Z" fill="#119B48"/>
<path d="M705.73 322.8C707.08 319.68 708.271 316.49 709.281 313.25L715.701 315.18C714.681 318.68 713.471 322.12 712.091 325.48L705.73 322.8Z" fill="#119B48"/>
<path d="M711.75 303.39C712.38 300.06 712.82 296.69 713.05 293.3L719.36 293.68C719.17 297.32 718.77 300.95 718.16 304.54L711.75 303.39Z" fill="#119B48"/>
<path d="M713.15 283.12C712.98 279.73 712.61 276.34 712.05 272.99L717.89 271.95C718.56 275.52 719.02 279.13 719.27 282.77L713.15 283.12Z" fill="#119B48"/>
<path d="M709.78 263.02C708.83 259.74 707.7 256.51 706.41 253.35L711.53 251.2C712.96 254.52 714.22 257.92 715.29 261.38L709.78 263.02Z" fill="#119B48"/>
<path d="M702.04 244.04C700.43 241.01 698.68 238.04 696.8 235.16L701.1 232.3C703.12 235.27 705.01 238.34 706.75 241.49L702.04 244.04Z" fill="#119B48"/>
<path d="M690.8 226.73L684.14 218.77L687.67 215.54L694.7 223.65L690.8 226.73Z" fill="#119B48"/>
<path d="M676.94 211.27L669.26 204.23L672.1 200.88L680.11 207.96L676.94 211.27Z" fill="#119B48"/>
<path d="M661.18 197.62L652.76 191.44L655.02 188.13L663.72 194.28L661.18 197.62Z" fill="#119B48"/>
<path d="M644.04 185.64L635.07 180.24L636.84 177.08L646.05 182.4L644.04 185.64Z" fill="#119B48"/>
<path d="M625.88 175.19L616.49 170.49L617.86 167.56L627.44 172.14L625.88 175.19Z" fill="#119B48"/>
<path d="M606.94 166.13L597.25 162.08L598.281 159.42L608.141 163.33L606.94 166.13Z" fill="#119B48"/>
<path d="M587.42 158.34L577.48 154.9L578.23 152.55L588.31 155.83L587.42 158.34Z" fill="#119B48"/>
<path d="M567.45 151.75L557.32 148.87L557.85 146.86L568.08 149.56L567.45 151.75Z" fill="#119B48"/>
<path d="M547.12 146.27L536.86 143.93L537.2 142.26L547.55 144.43L547.12 146.27Z" fill="#119B48"/>
<path d="M526.53 141.84L516.15 140.01L516.35 138.72L526.79 140.36L526.53 141.84Z" fill="#119B48"/>
<path d="M505.731 138.43L495.271 137.09L495.371 136.17L505.871 137.32L505.731 138.43Z" fill="#119B48"/>
<path d="M484.781 135.99L474.271 135.13L474.301 134.59L484.841 135.26L484.781 135.99Z" fill="#119B48"/>
<path d="M463.74 134.5L453.19 134.1V133.95L463.75 134.15L463.74 134.5Z" fill="#119B48"/>
<path d="M444.63 442.29V133.95" stroke="#F1E912" stroke-width="8.4733" stroke-miterlimit="10"/>
<path d="M681.7 303.3L610.47 370.39V494.96H496.18L426.52 564.51L353.28 484.22H238.43V359.21L171.34 292.11L242.46 225.02V100.45H356.85L426.52 30.8999L499.65 111.19H614.6V236.2L681.7 303.3Z" fill="#119B48"/>
<path d="M657.11 302.76L592.74 363.39V475.96H489.47L426.52 538.81L360.33 466.26H256.55V353.28L195.93 292.65L260.19 232.02V119.46H363.57L426.52 56.6001L492.6 129.16H596.48V242.13L657.11 302.76Z" stroke="#F1E912" stroke-width="15.1433" stroke-miterlimit="10"/>
<path d="M426.52 448.73C509.927 448.73 577.54 381.116 577.54 297.71C577.54 214.304 509.927 146.69 426.52 146.69C343.114 146.69 275.5 214.304 275.5 297.71C275.5 381.116 343.114 448.73 426.52 448.73Z" stroke="#F1E912" stroke-width="18.1084" stroke-miterlimit="10"/>
<path d="M505.01 253.31V364.53C481.99 350.25 454.89 342.09 425.84 342.09C397.38 342.09 370.76 350.06 348.03 363.75V252.54C370.76 238.84 397.38 230.88 425.84 230.88C454.88 230.87 481.98 239.03 505.01 253.31Z" stroke="#F1E912" stroke-width="18.1084" stroke-miterlimit="10"/>
<path d="M505.01 253.31L549.08 209.24" stroke="#F1E912" stroke-width="18.1084" stroke-miterlimit="10"/>
<path d="M344.39 248.9L304.73 209.24" stroke="#F1E912" stroke-width="18.1084" stroke-miterlimit="10"/>
<path d="M348.031 363.76L313.541 398.26" stroke="#F1E912" stroke-width="18.1084" stroke-miterlimit="10"/>
<path d="M505.01 364.54L535.99 395.52" stroke="#F1E912" stroke-width="18.1084" stroke-miterlimit="10"/>
<path d="M464.65 289.3C464.65 309.47 448.28 325.83 428.11 325.83C414.73 325.83 403.01 318.62 396.65 307.86C402.96 312.99 410.96 316.06 419.72 316.06C439.92 316.06 456.25 299.69 456.25 279.52C456.25 272.73 454.39 266.39 451.18 260.96C459.41 267.67 464.65 277.87 464.65 289.3Z" fill="white"/>
<path d="M416.001 268.49L418.211 272.96L423.141 273.68L419.571 277.16L420.411 282.07L416.001 279.75L411.591 282.07L412.431 277.16L408.871 273.68L413.801 272.96L416.001 268.49Z" fill="white"/>
<path d="M396.651 277.21L398.861 281.68L403.791 282.39L400.221 285.87L401.061 290.78L396.651 288.46L392.241 290.78L393.091 285.87L389.521 282.39L394.451 281.68L396.651 277.21Z" fill="white"/>
<path d="M419.38 290.92L421.59 295.39L426.52 296.1L422.951 299.58L423.79 304.49L419.38 302.17L414.97 304.49L415.82 299.58L412.25 296.1L417.18 295.39L419.38 290.92Z" fill="white"/>
<path d="M414.931 249.06L417.131 253.53L422.061 254.24L418.491 257.72L419.341 262.63L414.931 260.31L410.521 262.63L411.361 257.72L407.791 254.24L412.721 253.53L414.931 249.06Z" fill="white"/>
<path d="M436.1 261.71L438.3 266.18L443.23 266.89L439.67 270.37L440.51 275.28L436.1 272.96L431.69 275.28L432.53 270.37L428.96 266.89L433.89 266.18L436.1 261.71Z" fill="white"/>
</svg>
